<svg width="16" height="18" viewBox="0 0 16 18" fill="none" xmlns="http://www.w3.org/2000/svg">
<path d="M3.1881 18H12.8119C14.5009 18 15.875 16.5988 15.875 14.8763V5.53846C15.875 5.23385 15.6306 4.98462 15.3319 4.98462H12.0733V4.15385C12.0733 1.86369 10.2457 0 8 0C5.75427 0 3.92672 1.86369 3.92672 4.15385V4.98462H0.668103C0.369397 4.98462 0.125 5.23385 0.125 5.53846V14.8763C0.125 16.5988 1.49905 18 3.1881 18ZM5.01293 4.15385C5.01293 2.47292 6.35168 1.10769 8 1.10769C9.64832 1.10769 10.9871 2.47292 10.9871 4.15385V4.98462H5.01293V4.15385ZM1.21121 6.09231H3.92672V7.47692C3.92672 7.78154 4.17112 8.03077 4.46983 8.03077C4.76853 8.03077 5.01293 7.78154 5.01293 7.47692V6.09231H10.9871V7.47692C10.9871 7.78154 11.2315 8.03077 11.5302 8.03077C11.8289 8.03077 12.0733 7.78154 12.0733 7.47692V6.09231H14.7888V14.8763C14.7888 15.9868 13.9008 16.8923 12.8119 16.8923H3.1881C2.09918 16.8923 1.21121 15.9868 1.21121 14.8763V6.09231Z" fill="white"/>
</svg>
