<svg width="20" height="20" viewBox="0 0 20 20" fill="none" xmlns="http://www.w3.org/2000/svg">
<g clip-path="url(#clip0_6_463)">
<path d="M19.707 17.7962H19.132V5.69882C19.132 5.53699 19.0009 5.40585 18.8391 5.40585H16.3137C16.1518 5.40585 16.0207 5.53699 16.0207 5.69882V8.11406C16.0207 8.27589 16.1518 8.40703 16.3137 8.40703C16.4755 8.40703 16.6066 8.27589 16.6066 8.11406V5.99179H18.5461V17.7961H16.6066V9.48124C16.6066 9.31941 16.4755 9.18828 16.3137 9.18828C16.1518 9.18828 16.0207 9.31941 16.0207 9.48124V17.7962H14.0811V10.434C14.0811 10.2722 13.95 10.141 13.7881 10.141H11.2627C11.1009 10.141 10.9698 10.2722 10.9698 10.434V17.7962H9.03008V12.9887C9.03008 12.8268 8.89891 12.6957 8.73711 12.6957C8.57531 12.6957 8.44414 12.8268 8.44414 12.9887V17.7961H6.50469V7.96484H8.44414V11.6214C8.44414 11.7833 8.57531 11.9144 8.73711 11.9144C8.89891 11.9144 9.03008 11.7833 9.03008 11.6214V7.67187C9.03008 7.51003 8.89891 7.3789 8.73711 7.3789H6.21172C6.04992 7.3789 5.91875 7.51003 5.91875 7.67187V17.7962H3.9793V16.0547C3.9793 15.8928 3.84813 15.7617 3.68633 15.7617C3.52453 15.7617 3.39336 15.8928 3.39336 16.0547V17.7961H1.45391V13.0945H3.39336V14.6875C3.39336 14.8493 3.52453 14.9805 3.68633 14.9805C3.84813 14.9805 3.9793 14.8493 3.9793 14.6875V12.8016C3.9793 12.6397 3.84813 12.5086 3.68633 12.5086H1.16094C0.999141 12.5086 0.867969 12.6397 0.867969 12.8016V17.7962H0.292969C0.131172 17.7962 0 17.9273 0 18.0892V19.3519C0 19.5137 0.131172 19.6448 0.292969 19.6448H19.707C19.8689 19.6448 20 19.5137 20 19.3519V18.0892C20 17.9273 19.8689 17.7962 19.707 17.7962ZM11.5557 10.727H13.4951V17.7962H11.5557V10.727ZM19.4141 19.0589H0.585938V18.3821H19.4141V19.0589Z" fill="black"/>
<path d="M2.42377 10.5692C3.28154 10.5692 3.97943 9.87134 3.97943 9.01352C3.97943 8.68606 3.87748 8.38208 3.704 8.13118L6.61185 5.17759C6.85892 5.34286 7.15564 5.43946 7.47455 5.43946C7.95674 5.43946 8.38838 5.21895 8.67392 4.87344L11.0444 6.17009C10.9961 6.32016 10.9697 6.48001 10.9697 6.64595C10.9697 7.50376 11.6675 8.20161 12.5253 8.20161C13.3831 8.20161 14.081 7.50376 14.081 6.64595C14.081 6.34067 13.9922 6.05587 13.8397 5.81536L16.6626 3.16895C16.9194 3.35587 17.235 3.46649 17.5761 3.46649C18.4339 3.46649 19.1318 2.76864 19.1318 1.91083C19.1318 1.05302 18.434 0.355164 17.5762 0.355164C16.7184 0.355164 16.0205 1.05302 16.0205 1.91083C16.0205 2.21618 16.1093 2.50102 16.2619 2.74157L13.439 5.3879C13.1822 5.20094 12.8666 5.09028 12.5254 5.09028C12.0432 5.09028 11.6116 5.31079 11.326 5.65626L8.95549 4.35966C9.00381 4.20958 9.03021 4.04977 9.03021 3.88384C9.03021 3.02602 8.33232 2.32817 7.47455 2.32817C6.61677 2.32817 5.91888 3.02602 5.91888 3.88384C5.91888 4.21141 6.02088 4.51544 6.19447 4.76641L3.2867 7.71993C3.03959 7.55454 2.74279 7.4579 2.42377 7.4579C1.56599 7.4579 0.868103 8.15575 0.868103 9.01356C0.868103 9.87137 1.56595 10.5692 2.42377 10.5692V10.5692ZM17.5762 0.941101C18.1109 0.941101 18.5459 1.37614 18.5459 1.91083C18.5459 2.44552 18.1109 2.88055 17.5762 2.88055C17.0415 2.88055 16.6065 2.44552 16.6065 1.91083C16.6065 1.37614 17.0415 0.941101 17.5762 0.941101V0.941101ZM12.5254 5.67622C13.0601 5.67622 13.4951 6.11126 13.4951 6.64595C13.4951 7.18063 13.0601 7.61567 12.5254 7.61567C11.9907 7.61567 11.5556 7.18063 11.5556 6.64595C11.5556 6.11126 11.9907 5.67622 12.5254 5.67622ZM7.47459 2.91407C8.00928 2.91407 8.44431 3.34911 8.44431 3.8838C8.44431 4.41848 8.00928 4.85352 7.47459 4.85352C6.9399 4.85352 6.50486 4.41848 6.50486 3.8838C6.50486 3.34911 6.93986 2.91407 7.47459 2.91407ZM2.42377 8.0438C2.95845 8.0438 3.39349 8.47884 3.39349 9.01352C3.39349 9.54821 2.95845 9.98325 2.42377 9.98325C1.88908 9.98325 1.45404 9.54821 1.45404 9.01352C1.45404 8.47884 1.88904 8.0438 2.42377 8.0438Z" fill="black"/>
</g>
<defs>
<clipPath id="clip0_6_463">
<rect width="20" height="20" fill="white"/>
</clipPath>
</defs>
</svg>
