<svg width="20" height="20" viewBox="0 0 20 20" fill="none" xmlns="http://www.w3.org/2000/svg">
<g clip-path="url(#clip0_409_12246)">
<path d="M16.9782 13.0826C16.6923 13.0826 16.4596 12.85 16.4596 12.564V8.90074C16.4596 6.00853 14.5488 3.55428 11.9233 2.73393C12.0023 2.51413 12.044 2.28078 12.044 2.04335C12.044 0.916664 11.1273 0 10.0006 0C8.87381 0 7.95718 0.916664 7.95718 2.04339C7.95718 2.28267 7.99806 2.51566 8.07647 2.7344C5.45169 3.55514 3.54152 6.00904 3.54152 8.90078V12.5641C3.54152 12.85 3.30888 13.0827 3.02296 13.0827C1.87947 13.0827 0.949219 14.0129 0.949219 15.1564C0.949219 16.2999 1.87947 17.2301 3.02296 17.2301H7.86063C7.81391 17.4104 7.78945 17.5977 7.78945 17.7889C7.78945 19.0081 8.78138 20 10.0006 20C11.2198 20 12.2117 19.0081 12.2117 17.7889C12.2117 17.5978 12.1872 17.4104 12.1405 17.2301H16.9781C18.1216 17.2301 19.0519 16.2999 19.0519 15.1564C19.052 14.0129 18.1217 13.0826 16.9782 13.0826ZM9.13511 2.04339C9.13511 1.56617 9.52336 1.17793 10.0006 1.17793C10.4778 1.17793 10.866 1.56617 10.866 2.04339C10.866 2.19986 10.8237 2.35216 10.745 2.48488C10.5006 2.45673 10.2523 2.44173 10.0006 2.44173C9.74909 2.44173 9.50105 2.45669 9.25695 2.4848C9.17811 2.35248 9.13511 2.20139 9.13511 2.04339ZM11.0338 17.7889C11.0338 18.3586 10.5703 18.8221 10.0006 18.8221C9.43093 18.8221 8.96741 18.3586 8.96741 17.7889C8.96741 17.5876 9.02482 17.3952 9.13142 17.2301H10.8698C10.9764 17.3952 11.0338 17.5876 11.0338 17.7889ZM16.9782 16.0522H3.02296C2.52902 16.0522 2.12715 15.6503 2.12715 15.1564C2.12715 14.6624 2.52902 14.2605 3.02296 14.2605C3.95839 14.2605 4.71945 13.4995 4.71945 12.564V8.90074C4.71945 5.9887 7.08854 3.61962 10.0006 3.61962C12.9126 3.61962 15.2817 5.9887 15.2817 8.90074V12.564C15.2817 13.4995 16.0428 14.2605 16.9782 14.2605C17.4721 14.2605 17.874 14.6624 17.874 15.1564C17.874 15.6503 17.4721 16.0522 16.9782 16.0522Z" fill="#333333"/>
</g>
<defs>
<clipPath id="clip0_409_12246">
<rect width="20" height="20" fill="white"/>
</clipPath>
</defs>
</svg>
