<svg width="20" height="17" viewBox="0 0 20 17" fill="none" xmlns="http://www.w3.org/2000/svg">
<path fill-rule="evenodd" clip-rule="evenodd" d="M9.82735 13.6517C12.3144 13.6517 14.3305 11.7394 14.3305 9.38054C14.3305 7.02164 12.3144 5.10938 9.82735 5.10938C7.34034 5.10938 5.32422 7.02164 5.32422 9.38054C5.32422 11.7394 7.34034 13.6517 9.82735 13.6517ZM9.36133 7.35708C9.36133 7.09623 9.57279 6.88477 9.83364 6.88477C10.0945 6.88477 10.3059 7.09623 10.3059 7.35708V8.89258L11.968 8.89258C12.2154 8.89258 12.416 9.09315 12.416 9.34056C12.416 9.58797 12.2154 9.78854 11.968 9.78854H10.3059V11.3223C10.3059 11.5832 10.0945 11.7946 9.83364 11.7946C9.57279 11.7946 9.36133 11.5832 9.36133 11.3223V9.78854H7.68748C7.44006 9.78854 7.2395 9.58797 7.2395 9.34056C7.2395 9.09315 7.44006 8.89258 7.68748 8.89258L9.36133 8.89258V7.35708Z" fill="#AA7F4D"/>
<path fill-rule="evenodd" clip-rule="evenodd" d="M6.08955 4.47471H2.33398C2.24194 4.47471 2.16732 4.54688 2.16732 4.63589V15.1123C2.16732 15.2014 2.24194 15.2735 2.33398 15.2735H17.6673C17.7594 15.2735 17.834 15.2014 17.834 15.1123V4.63589C17.834 4.54688 17.7594 4.47471 17.6673 4.47471H13.9117L13.5356 3.79058C12.8618 2.56475 11.5304 1.73472 10.0007 1.73472C8.47091 1.73472 7.13954 2.56475 6.46565 3.79058L6.08955 4.47471ZM14.713 3.18531C13.8168 1.55524 12.0428 0.445312 10.0007 0.445312C7.95853 0.445312 6.18447 1.55524 5.28835 3.18531H2.33398C1.50556 3.18531 0.833984 3.83475 0.833984 4.63589V15.1123C0.833984 15.9135 1.50556 16.5629 2.33398 16.5629H17.6673C18.4957 16.5629 19.1673 15.9135 19.1673 15.1123V4.63589C19.1673 3.83475 18.4957 3.18531 17.6673 3.18531H14.713Z" fill="#AA7F4D"/>
</svg>
