<svg width="20" height="20" viewBox="0 0 20 20" fill="none" xmlns="http://www.w3.org/2000/svg">
<g clip-path="url(#clip0_1_2313)">
<path d="M18.3762 16.4091H5.2847C5.12373 16.4091 5.05476 16.1976 5.18082 16.1005L7.00322 14.6998H17.416C18.1563 14.6998 18.7704 14.0913 18.7847 13.3521L18.9014 7.3467C18.9147 6.66209 18.4134 6.06764 17.7353 5.96628C17.4091 5.91748 17.1036 6.14178 17.0547 6.46847C17.0058 6.79516 17.2312 7.09915 17.5582 7.14804C17.6432 7.16073 17.706 7.23457 17.7044 7.32012L17.5877 13.3289C17.5859 13.4212 17.5089 13.5034 17.416 13.5034H7.27521L5.3861 5.33573L6.34493 5.4755C6.67183 5.52422 6.97664 5.29735 7.02556 4.97067C7.07445 4.64398 6.84904 4.33866 6.52201 4.28977L5.08583 4.0747L4.5368 1.94053C4.4689 1.67598 4.23029 1.49561 3.95693 1.49561H1.62602C1.2954 1.49561 1.02734 1.76354 1.02734 2.09385C1.02734 2.42417 1.29536 2.6921 1.62602 2.6921H3.49243L6.1293 13.8503L4.44954 15.1443C3.43615 15.9252 4.00611 17.6056 5.28466 17.6056H6.85626C6.78669 17.7765 6.74849 17.9945 6.74849 18.2084C6.74849 19.198 7.55933 19.9998 8.55602 19.9998C9.5527 19.9998 10.3635 19.1997 10.3635 18.2101C10.3635 17.9961 10.3253 17.7765 10.2558 17.6056H13.5254C13.4558 17.7765 13.4176 17.9945 13.4176 18.2084C13.4176 19.198 14.2285 19.9998 15.2252 19.9998C16.2219 19.9998 17.0327 19.1997 17.0327 18.2101C17.0327 17.9961 16.9945 17.7765 16.925 17.6056H18.3763C18.7069 17.6056 18.975 17.3377 18.975 17.0074C18.975 16.677 18.7069 16.4091 18.3762 16.4091ZM8.55602 18.8002C8.21954 18.8002 7.94584 18.5317 7.94584 18.2018C7.94584 17.8718 8.21959 17.6033 8.55602 17.6033C8.89249 17.6033 9.16623 17.8718 9.16623 18.2018C9.16623 18.5317 8.89249 18.8002 8.55602 18.8002ZM15.2251 18.8002C14.8887 18.8002 14.615 18.5317 14.615 18.2018C14.615 17.8718 14.8887 17.6033 15.2251 17.6033C15.5616 17.6033 15.8353 17.8718 15.8353 18.2018C15.8353 18.5317 15.5616 18.8002 15.2251 18.8002Z" fill="#333333"/>
<path d="M11.977 8.67129C9.57946 8.67129 7.62891 6.72634 7.62891 4.33565C7.62891 1.94495 9.57946 0 11.977 0C14.3745 0 16.3251 1.94495 16.3251 4.33565C16.3251 6.72634 14.3745 8.67129 11.977 8.67129ZM11.977 1.19624C10.2397 1.19624 8.82626 2.60457 8.82626 4.33565C8.82626 6.06672 10.2397 7.47505 11.977 7.47505C13.7143 7.47505 15.1277 6.06672 15.1277 4.33565C15.1277 2.60457 13.7143 1.19624 11.977 1.19624Z" fill="#333333"/>
<path d="M10.9148 5.85826L9.95321 4.71709C9.74028 4.46442 9.77267 4.08709 10.0256 3.87433C10.2785 3.66157 10.6561 3.69392 10.8691 3.94668L11.3975 4.57369L13.0413 2.82705C13.2678 2.58643 13.6467 2.57476 13.8876 2.80103C14.1285 3.0273 14.1401 3.40586 13.9136 3.64648L11.8089 5.88278C11.621 6.08068 11.1399 6.11986 10.9148 5.85826Z" fill="#333333"/>
</g>
<defs>
<clipPath id="clip0_1_2313">
<rect width="20" height="20" fill="white"/>
</clipPath>
</defs>
</svg>
