<svg width="18" height="15" viewBox="0 0 18 15" fill="none" xmlns="http://www.w3.org/2000/svg">
<path d="M13.8284 2.60709C13.4477 2.60709 13.0746 2.65761 12.7139 2.75756C12.4068 2.17548 11.966 1.67446 11.4198 1.29084C10.7159 0.796473 9.88766 0.535156 9.02472 0.535156C8.1579 0.535156 7.32663 0.798617 6.6208 1.29706C6.07458 1.68283 5.6347 2.18574 5.32912 2.76962C4.95524 2.66158 4.56768 2.60705 4.1715 2.60705C1.87133 2.60709 0 4.47846 0 6.77862C0 8.71278 1.33527 10.3788 3.17408 10.83V14.2889H14.8288V10.8292C16.6659 10.3769 18 8.71109 18 6.77859C18 4.47846 16.1287 2.60709 13.8284 2.60709Z" fill="white"/>
</svg>
