<svg width="20" height="20" viewBox="0 0 20 20" fill="none" xmlns="http://www.w3.org/2000/svg">
<path fill-rule="evenodd" clip-rule="evenodd" d="M10 20C15.5228 20 20 15.5228 20 10C20 4.47715 15.5228 0 10 0C4.47715 0 0 4.47715 0 10C0 15.5228 4.47715 20 10 20ZM14.6123 7.22329L11.8447 9.99091L14.6906 12.7585C14.813 12.8799 14.9101 13.0243 14.9764 13.1834C15.0427 13.3425 15.0768 13.5131 15.0768 13.6854C15.0768 13.8578 15.0427 14.0284 14.9764 14.1875C14.9101 14.3466 14.813 14.491 14.6906 14.6123C14.5722 14.7353 14.4303 14.8333 14.2733 14.9005C14.1164 14.9678 13.9476 15.003 13.7768 15.004C13.424 15.0031 13.0859 14.8622 12.8369 14.6123L9.99091 11.8447L7.22329 14.6907C7.10672 14.8161 6.96519 14.9157 6.80781 14.9832C6.65042 15.0506 6.48066 15.0844 6.30945 15.0823C6.13823 15.0844 5.96847 15.0506 5.81109 14.9832C5.65371 14.9157 5.51218 14.8161 5.39561 14.6907C5.27325 14.5693 5.17613 14.4249 5.10985 14.2658C5.04357 14.1067 5.00945 13.9361 5.00945 13.7638C5.00945 13.5914 5.04357 13.4208 5.10985 13.2617C5.17613 13.1026 5.27325 12.9582 5.39561 12.8369L8.16323 9.99091L5.39561 7.22329C5.27073 7.10608 5.17119 6.96452 5.10315 6.80735C5.0351 6.65017 5 6.48072 5 6.30945C5 6.13818 5.0351 5.96873 5.10315 5.81155C5.17119 5.65438 5.27073 5.51282 5.39561 5.39561C5.51282 5.27073 5.65438 5.17119 5.81155 5.10315C5.96872 5.0351 6.13818 5 6.30945 5C6.48072 5 6.65017 5.0351 6.80735 5.10315C6.96452 5.17119 7.10608 5.27073 7.22329 5.39561L9.99091 8.16323L12.8369 5.39561C13.0783 5.17173 13.3954 5.04732 13.7246 5.04732C14.0538 5.04732 14.3709 5.17173 14.6123 5.39561C14.7372 5.51282 14.8367 5.65438 14.9048 5.81155C14.9728 5.96873 15.0079 6.13818 15.0079 6.30945C15.0079 6.48072 14.9728 6.65017 14.9048 6.80735C14.8367 6.96452 14.7372 7.10608 14.6123 7.22329Z" fill="white"/>
</svg>
