<svg width="22" height="22" viewBox="0 0 22 22" fill="none" xmlns="http://www.w3.org/2000/svg">
<circle cx="11" cy="11" r="11" fill="#C4C4C4"/>
<path d="M13.0292 10.99L16.0736 7.94562C16.2109 7.81669 16.3204 7.66097 16.3953 7.48808C16.4701 7.31519 16.5087 7.12879 16.5087 6.94039C16.5087 6.752 16.4701 6.5656 16.3953 6.39271C16.3204 6.21981 16.2109 6.0641 16.0736 5.93517C15.808 5.6889 15.4592 5.55206 15.0971 5.55206C14.7349 5.55206 14.3861 5.6889 14.1205 5.93517L10.99 8.97956L7.94562 5.93517C7.81669 5.7978 7.66097 5.68831 7.48808 5.61346C7.31519 5.53862 7.12879 5.5 6.94039 5.5C6.752 5.5 6.5656 5.53862 6.39271 5.61346C6.21981 5.68831 6.0641 5.7978 5.93517 5.93517C5.7978 6.0641 5.68831 6.21981 5.61346 6.39271C5.53862 6.5656 5.5 6.752 5.5 6.94039C5.5 7.12879 5.53862 7.31519 5.61346 7.48808C5.68831 7.66097 5.7978 7.81669 5.93517 7.94562L8.97956 10.99L5.93517 14.1205C5.80057 14.254 5.69374 14.4129 5.62084 14.5879C5.54793 14.7629 5.5104 14.9506 5.5104 15.1401C5.5104 15.3297 5.54793 15.5174 5.62084 15.6924C5.69374 15.8674 5.80057 16.0262 5.93517 16.1597C6.0634 16.2977 6.21908 16.4073 6.3922 16.4815C6.56532 16.5557 6.75206 16.5928 6.94039 16.5905C7.12873 16.5928 7.31546 16.5557 7.48859 16.4815C7.66171 16.4073 7.81739 16.2977 7.94562 16.1597L10.99 13.0292L14.1205 16.0736C14.3945 16.3485 14.7664 16.5034 15.1545 16.5044C15.3423 16.5033 15.528 16.4646 15.7007 16.3906C15.8733 16.3166 16.0294 16.2088 16.1597 16.0736C16.2943 15.9401 16.4011 15.7812 16.474 15.6062C16.547 15.4312 16.5845 15.2435 16.5845 15.054C16.5845 14.8644 16.547 14.6767 16.474 14.5017C16.4011 14.3267 16.2943 14.1679 16.1597 14.0344L13.0292 10.99Z" fill="white"/>
</svg>
