<svg width="26" height="26" viewBox="0 0 26 26" fill="none" xmlns="http://www.w3.org/2000/svg">
<circle cx="13" cy="13" r="13" fill="white"/>
<path d="M13 2C6.92027 2 2 6.91979 2 13C2 19.0798 6.91979 24 13 24C19.0797 24 24 19.0802 24 13C24 6.92022 19.0802 2 13 2ZM13 22.2812C7.87022 22.2812 3.71875 18.1302 3.71875 13C3.71875 7.87018 7.86983 3.71875 13 3.71875C18.1298 3.71875 22.2812 7.86983 22.2812 13C22.2812 18.1298 18.1302 22.2812 13 22.2812Z" fill="#AA7F4D"/>
<path d="M16.763 15.5477L14.2149 12.9996L16.763 10.4514C17.0986 10.1158 17.0987 9.57173 16.7631 9.2361C16.4274 8.90047 15.8833 8.90051 15.5478 9.2361L12.9996 11.7842L10.4514 9.2361C10.1159 8.90047 9.57166 8.90047 9.23608 9.2361C8.90049 9.57173 8.90049 10.1158 9.23612 10.4514L11.7843 12.9996L9.23612 15.5477C8.90049 15.8833 8.90045 16.4274 9.23608 16.763C9.57179 17.0987 10.1159 17.0986 10.4514 16.763L12.9996 14.2149L15.5478 16.763C15.8833 17.0986 16.4275 17.0986 16.7631 16.763C17.0987 16.4274 17.0987 15.8833 16.763 15.5477Z" fill="#AA7F4D"/>
</svg>
