<svg width="25" height="25" viewBox="0 0 25 25" fill="none" xmlns="http://www.w3.org/2000/svg">
<path d="M22.6482 5.58796L22.0962 3.93333C21.886 3.30315 21.2984 2.87971 20.6343 2.87971H15.995V1.36929C15.995 0.614357 15.3812 0 14.6265 0H10.3781C9.62351 0 9.00953 0.614357 9.00953 1.36929V2.87971H4.37048C3.70615 2.87971 3.1185 3.30315 2.90831 3.93333L2.35632 5.58796C2.23063 5.96466 2.29433 6.3818 2.52646 6.70395C2.75858 7.0261 3.13414 7.21855 3.53125 7.21855H4.10822L5.37813 22.9219C5.47255 24.0871 6.46132 25 7.62957 25H17.6327C18.8007 25 19.7897 24.0871 19.8839 22.9218L21.1538 7.21855H21.4733C21.8704 7.21855 22.246 7.0261 22.4781 6.70414C22.7102 6.38199 22.7739 5.96466 22.6482 5.58796ZM10.4744 1.46484H14.5302V2.87971H10.4744V1.46484ZM18.4238 22.8037C18.3906 23.214 18.0431 23.5352 17.6327 23.5352H7.62957C7.21911 23.5352 6.87159 23.214 6.8384 22.8037L5.57783 7.21855H19.6842L18.4238 22.8037ZM3.84539 5.75371L4.298 4.39682C4.3083 4.36554 4.33748 4.34456 4.37048 4.34456H20.6343C20.6673 4.34456 20.6962 4.36554 20.7067 4.39682L21.1593 5.75371H3.84539Z" fill="#AA7F4D"/>
<path d="M16.0889 22.7515C16.1018 22.7523 16.1146 22.7525 16.1276 22.7525C16.5146 22.7525 16.8381 22.4492 16.8583 22.0582L17.5461 8.85514C17.5671 8.45117 17.2565 8.10651 16.8528 8.08553C16.4478 8.06398 16.1043 8.37487 16.0831 8.77885L15.3955 21.9819C15.3746 22.3859 15.6849 22.7305 16.0889 22.7515Z" fill="#AA7F4D"/>
<path d="M8.18225 22.0603C8.20361 22.4507 8.52671 22.7528 8.91295 22.7528C8.9263 22.7528 8.94004 22.7524 8.95358 22.7517C9.35736 22.7297 9.66693 22.3845 9.64499 21.9805L8.92459 8.77749C8.90265 8.37351 8.55742 8.06395 8.15345 8.08608C7.74966 8.10801 7.4401 8.45324 7.46203 8.85722L8.18225 22.0603Z" fill="#AA7F4D"/>
<path d="M12.5137 22.7529C12.9182 22.7529 13.2461 22.425 13.2461 22.0204V8.81738C13.2461 8.41283 12.9182 8.08496 12.5137 8.08496C12.1091 8.08496 11.7812 8.41283 11.7812 8.81738V22.0204C11.7812 22.425 12.1091 22.7529 12.5137 22.7529Z" fill="#AA7F4D"/>
</svg>
