<svg width="24" height="25" viewBox="0 0 24 25" fill="none" xmlns="http://www.w3.org/2000/svg">
<path d="M15.8408 23.207H8.16082C7.39244 23.1959 6.65657 22.8952 6.10037 22.3649C5.54416 21.8347 5.20861 21.114 5.16082 20.347L4.25082 6.50703C4.24615 6.40669 4.26143 6.30642 4.29576 6.21201C4.33009 6.11761 4.38279 6.03094 4.45082 5.95703C4.52091 5.88043 4.60576 5.8188 4.70028 5.77584C4.7948 5.73288 4.89702 5.70947 5.00082 5.70703H19.0008C19.1037 5.7068 19.2055 5.72773 19.2999 5.76851C19.3943 5.80929 19.4793 5.86905 19.5496 5.94408C19.62 6.0191 19.6741 6.1078 19.7087 6.20464C19.7434 6.30149 19.7577 6.40442 19.7508 6.50703L18.8808 20.347C18.8325 21.1208 18.4913 21.8472 17.9266 22.3785C17.362 22.9097 16.6161 23.206 15.8408 23.207V23.207ZM5.84082 7.20703L6.61082 20.257C6.63626 20.6505 6.81073 21.0196 7.0987 21.289C7.38667 21.5583 7.76649 21.7079 8.16082 21.707H15.8408C16.2345 21.7055 16.613 21.5552 16.9004 21.2863C17.1879 21.0173 17.3631 20.6497 17.3908 20.257L18.2008 7.25703L5.84082 7.20703Z" fill="#693F00"/>
<path d="M21 7.20703H3C2.80109 7.20703 2.61032 7.12801 2.46967 6.98736C2.32902 6.84671 2.25 6.65594 2.25 6.45703C2.25 6.25812 2.32902 6.06735 2.46967 5.9267C2.61032 5.78605 2.80109 5.70703 3 5.70703H21C21.1989 5.70703 21.3897 5.78605 21.5303 5.9267C21.671 6.06735 21.75 6.25812 21.75 6.45703C21.75 6.65594 21.671 6.84671 21.5303 6.98736C21.3897 7.12801 21.1989 7.20703 21 7.20703V7.20703Z" fill="#693F00"/>
<path d="M15 7.20703H9C8.80189 7.20444 8.61263 7.12459 8.47253 6.9845C8.33244 6.8444 8.25259 6.65514 8.25 6.45703V4.65703C8.26268 4.14385 8.47219 3.65519 8.83518 3.29221C9.19816 2.92922 9.68682 2.71971 10.2 2.70703H13.8C14.3217 2.72008 14.8177 2.93654 15.182 3.31021C15.5463 3.68387 15.7502 4.18515 15.75 4.70703V6.45703C15.7474 6.65514 15.6676 6.8444 15.5275 6.9845C15.3874 7.12459 15.1981 7.20444 15 7.20703V7.20703ZM9.75 5.70703H14.25V4.70703C14.25 4.58768 14.2026 4.47322 14.1182 4.38883C14.0338 4.30444 13.9193 4.25703 13.8 4.25703H10.2C10.0807 4.25703 9.96619 4.30444 9.8818 4.38883C9.79741 4.47322 9.75 4.58768 9.75 4.70703V5.70703Z" fill="#693F00"/>
<path d="M15 19.207C14.8019 19.2044 14.6126 19.1246 14.4725 18.9845C14.3324 18.8444 14.2526 18.6551 14.25 18.457V10.457C14.25 10.2581 14.329 10.0674 14.4697 9.9267C14.6103 9.78605 14.8011 9.70703 15 9.70703C15.1989 9.70703 15.3897 9.78605 15.5303 9.9267C15.671 10.0674 15.75 10.2581 15.75 10.457V18.457C15.7474 18.6551 15.6676 18.8444 15.5275 18.9845C15.3874 19.1246 15.1981 19.2044 15 19.207V19.207Z" fill="#693F00"/>
<path d="M9 19.207C8.80189 19.2044 8.61263 19.1246 8.47253 18.9845C8.33244 18.8444 8.25259 18.6551 8.25 18.457V10.457C8.25 10.2581 8.32902 10.0674 8.46967 9.9267C8.61032 9.78605 8.80109 9.70703 9 9.70703C9.19891 9.70703 9.38968 9.78605 9.53033 9.9267C9.67098 10.0674 9.75 10.2581 9.75 10.457V18.457C9.74741 18.6551 9.66756 18.8444 9.52747 18.9845C9.38737 19.1246 9.19811 19.2044 9 19.207V19.207Z" fill="#693F00"/>
<path d="M12 19.207C11.8019 19.2044 11.6126 19.1246 11.4725 18.9845C11.3324 18.8444 11.2526 18.6551 11.25 18.457V10.457C11.25 10.2581 11.329 10.0674 11.4697 9.9267C11.6103 9.78605 11.8011 9.70703 12 9.70703C12.1989 9.70703 12.3897 9.78605 12.5303 9.9267C12.671 10.0674 12.75 10.2581 12.75 10.457V18.457C12.7474 18.6551 12.6676 18.8444 12.5275 18.9845C12.3874 19.1246 12.1981 19.2044 12 19.207V19.207Z" fill="#693F00"/>
</svg>
