<svg width="20" height="20" viewBox="0 0 20 20" fill="none" xmlns="http://www.w3.org/2000/svg">
<path d="M10 19.375C9.4375 19.375 8.875 19.1562 8.4375 18.75L7.25 17.5625C7.0625 17.375 6.84375 17.2812 6.59375 17.2812H4.90625C3.6875 17.2812 2.71875 16.3125 2.71875 15.0937V13.4062C2.71875 13.1562 2.625 12.9062 2.4375 12.75L1.28125 11.5625C0.4375 10.7187 0.4375 9.3125 1.28125 8.46875L2.46875 7.28125C2.65625 7.09375 2.75 6.875 2.75 6.625V4.9375C2.75 3.71875 3.71875 2.75 4.9375 2.75H6.625C6.875 2.75 7.125 2.65625 7.28125 2.46875L8.4375 1.28125C9.28125 0.4375 10.6875 0.4375 11.5312 1.28125L12.7187 2.46875C12.9062 2.65625 13.125 2.75 13.375 2.75H15.0625C16.2812 2.75 17.25 3.71875 17.25 4.9375V6.625C17.25 6.875 17.3437 7.125 17.5312 7.28125L18.7187 8.46875C19.5625 9.3125 19.5625 10.7187 18.7187 11.5625L17.5312 12.75C17.3437 12.9375 17.25 13.1562 17.25 13.4062V15.0937C17.25 16.3125 16.2812 17.2812 15.0625 17.2812H13.375C13.125 17.2812 12.875 17.375 12.7187 17.5625L11.5625 18.7187C11.125 19.1562 10.5625 19.375 10 19.375ZM4.90625 3.96875C4.375 3.96875 3.96875 4.40625 3.96875 4.90625V6.59375C3.96875 7.1875 3.75 7.71875 3.3125 8.15625L2.125 9.34375C1.75 9.71875 1.75 10.3125 2.125 10.6875L3.3125 11.875C3.71875 12.2812 3.96875 12.8437 3.96875 13.4375V15.125C3.96875 15.6562 4.40625 16.0625 4.90625 16.0625H6.59375C7.1875 16.0625 7.71875 16.2812 8.15625 16.7187L9.34375 17.9062C9.71875 18.2812 10.3125 18.2812 10.6875 17.9062L11.875 16.7187C12.2812 16.3125 12.8437 16.0625 13.4375 16.0625H15.125C15.6562 16.0625 16.0625 15.625 16.0625 15.125V13.4375C16.0625 12.8437 16.2812 12.3125 16.7187 11.875L17.9062 10.6875C18.2812 10.3125 18.2812 9.71875 17.9062 9.34375L16.7187 8.15625C16.3125 7.75 16.0625 7.1875 16.0625 6.59375V4.90625C16.0625 4.375 15.625 3.96875 15.125 3.96875H13.4375C12.8437 3.96875 12.3125 3.75 11.875 3.3125L10.6875 2.125C10.3125 1.75 9.71875 1.75 9.34375 2.125L8.15625 3.3125C7.75 3.71875 7.1875 3.96875 6.59375 3.96875H4.90625Z" fill="#333333"/>
<path d="M6.5625 14.0625C6.40625 14.0625 6.25 14 6.125 13.875C5.875 13.625 5.875 13.25 6.125 13L13 6.125C13.25 5.875 13.625 5.875 13.875 6.125C14.125 6.375 14.125 6.75 13.875 7L7 13.875C6.875 14 6.71875 14.0625 6.5625 14.0625Z" fill="#333333"/>
<path d="M12.5312 14.4688C11.4687 14.4688 10.5938 13.5937 10.5938 12.5312C10.5938 11.4687 11.4687 10.5938 12.5312 10.5938C13.5937 10.5938 14.4688 11.4687 14.4688 12.5312C14.4688 13.5937 13.5937 14.4688 12.5312 14.4688ZM12.5312 11.875C12.1875 11.875 11.875 12.1875 11.875 12.5312C11.875 12.875 12.1875 13.2187 12.5625 13.2187C12.9375 13.2187 13.25 12.9062 13.25 12.5312C13.25 12.1562 12.9062 11.875 12.5312 11.875Z" fill="#333333"/>
<path d="M7.46875 9.375C6.40625 9.375 5.53125 8.5 5.53125 7.4375C5.53125 6.375 6.40625 5.5 7.46875 5.5C8.53125 5.5 9.40625 6.375 9.40625 7.4375C9.40625 8.5 8.5 9.375 7.46875 9.375ZM7.46875 6.78125C7.09375 6.78125 6.78125 7.09375 6.78125 7.46875C6.78125 7.84375 7.09375 8.15625 7.46875 8.15625C7.84375 8.15625 8.15625 7.84375 8.15625 7.46875C8.15625 7.09375 7.8125 6.78125 7.46875 6.78125Z" fill="#333333"/>
</svg>
