<svg width="20" height="20" viewBox="0 0 20 20" fill="none" xmlns="http://www.w3.org/2000/svg">
<path d="M19.996 10.7629C19.9721 10.209 19.4302 9.7667 18.3821 9.44791C17.5692 9.20484 16.5372 9.0574 15.4214 9.03349V4.78164C15.4174 4.70991 15.3975 4.64217 15.3616 4.5824C15.2501 4.10023 14.7121 3.70971 13.7597 3.4228C12.8631 3.15183 11.6916 3.00439 10.4603 3.00439C9.23291 3.00439 8.07332 3.15183 7.19267 3.4228C6.47141 3.64596 5.60669 4.06038 5.60669 4.77367C5.60669 4.81751 5.61068 4.86134 5.61865 4.90517L5.66248 6.72227C3.07233 6.22815 0.57382 7.92968 0.083682 10.5159C0.027894 10.8107 0 11.1056 0 11.4045C0 14.0345 2.13987 16.1744 4.76987 16.1744C5.86571 16.1744 6.92568 15.7998 7.77446 15.1064C8.51963 15.2817 9.39629 15.3774 10.3248 15.3854C10.528 16.4892 12.9189 16.9952 15.1464 16.9952C16.3738 16.9952 17.5334 16.8438 18.414 16.5689C19.1353 16.3457 20 15.9273 20 15.214V10.8386C20 10.8147 20 10.7868 19.996 10.7629ZM14.5886 6.98527C14.5886 7.03707 14.3973 7.31203 13.5326 7.57503C12.7237 7.81811 11.6039 7.96156 10.4642 7.96156C9.47998 7.96156 8.51564 7.85795 7.75055 7.6627C7.73859 7.65871 7.73062 7.65871 7.71867 7.65473C7.34011 7.35586 6.9217 7.11677 6.47141 6.94941L6.44351 5.82568C6.71847 5.96515 7.00538 6.07672 7.30424 6.15642C8.16896 6.40746 9.2887 6.54295 10.4642 6.54295C11.6916 6.54295 12.8671 6.39551 13.7637 6.12454C14.0626 6.03687 14.3535 5.92131 14.6284 5.77786V6.82189C14.5846 6.87768 14.5886 6.92948 14.5886 6.98527ZM7.43176 4.19188C8.2367 3.94482 9.31261 3.80535 10.4603 3.80535C11.5999 3.80535 12.7197 3.94482 13.5286 4.19188C14.3933 4.45488 14.5846 4.72585 14.5846 4.77766C14.5846 4.83345 14.3893 5.1084 13.5246 5.36742C12.7157 5.61049 11.5999 5.74996 10.4603 5.74996C9.36043 5.74996 8.3164 5.62245 7.52341 5.39133C6.66667 5.14426 6.42758 4.87329 6.40765 4.78563C6.40765 4.77766 6.40367 4.77766 6.40367 4.77766C6.40765 4.70194 6.59095 4.44691 7.43176 4.19188ZM7.44371 14.3453C5.82188 15.8197 3.30743 15.7041 1.83303 14.0823C0.358637 12.4605 0.474198 9.94602 2.09604 8.47162C2.82526 7.80615 3.78163 7.43954 4.76987 7.43954C5.16836 7.43954 5.56286 7.49932 5.94541 7.61488C7.32815 8.04524 8.3682 9.19288 8.66308 10.6075C8.71488 10.8705 8.74278 11.1415 8.74278 11.4085C8.74676 12.5282 8.27256 13.5922 7.44371 14.3453ZM8.45587 14.433C8.77864 14.0385 9.03766 13.5962 9.22096 13.122C9.55967 13.1498 9.91034 13.1698 10.2769 13.1738V13.2455L10.3009 14.5964C9.6832 14.5884 9.06555 14.5326 8.45587 14.433ZM9.51982 10.9343C9.75095 10.9502 9.99402 10.9582 10.2411 10.9622L10.265 12.3728C9.98605 12.3688 9.7111 12.3569 9.4481 12.3369C9.50787 12.0301 9.53975 11.7153 9.53975 11.4045C9.53975 11.2491 9.53178 11.0937 9.51982 10.9343ZM10.5001 10.1692C10.4881 10.1692 10.4722 10.1692 10.4603 10.1692C10.0777 10.1692 9.70711 10.1532 9.36442 10.1293C9.21299 9.59535 8.9739 9.09326 8.65113 8.64696C9.24885 8.72267 9.85057 8.76252 10.4563 8.76252C11.6876 8.76252 12.8631 8.61508 13.7597 8.34411C14.0586 8.25644 14.3455 8.14088 14.6204 8.00141V9.04544C12.9109 9.09326 11.1536 9.4519 10.5001 10.1692ZM11.0261 10.8028C11.0261 10.7988 11.0261 10.7948 11.0301 10.7868C11.0659 10.6792 11.3489 10.4162 12.1737 10.1851C12.9468 9.96594 13.955 9.8464 15.0149 9.8464H15.0827C16.2224 9.8464 17.3381 9.9779 18.151 10.225C18.9998 10.48 19.199 10.743 19.203 10.8028V10.8068C19.199 10.8665 18.9998 11.1415 18.1152 11.4045C17.2983 11.6476 16.2224 11.7791 15.0867 11.7791C13.9869 11.7791 12.9428 11.6515 12.1498 11.4244C11.2931 11.1773 11.058 10.9024 11.0341 10.8187C11.0261 10.8028 11.0261 10.8028 11.0261 10.8028ZM18.1829 15.8117C17.378 16.0628 16.2981 16.2022 15.1504 16.2022C13.9988 16.2022 12.9229 16.0668 12.1259 15.8237C11.2851 15.5647 11.1098 15.2977 11.1098 15.2379C11.1098 15.2339 11.1098 15.2339 11.1098 15.2299L11.0899 14.0743C11.4086 14.2297 11.7394 14.3493 12.0821 14.437C12.9189 14.6561 13.9829 14.7797 15.0747 14.7797C16.306 14.7797 17.4736 14.6322 18.3662 14.3612C18.6571 14.2736 18.936 14.158 19.203 14.0225V15.218H19.207C19.207 15.2738 19.0237 15.5487 18.1829 15.8117ZM19.211 12.8789H19.207C19.207 12.9187 19.1831 12.9665 19.1831 13.0104C19.1831 13.0662 18.9958 13.3371 18.1351 13.6001C17.3182 13.8472 16.2303 13.9827 15.0787 13.9827C12.8711 13.9827 11.3847 13.4846 11.0739 13.098L11.0699 12.7633L11.054 11.8468C11.3329 11.9863 11.6238 12.0978 11.9227 12.1815C12.7874 12.4326 13.9072 12.5681 15.0827 12.5681C16.2941 12.5681 17.4497 12.4246 18.3383 12.1616C18.6412 12.0779 18.9321 11.9624 19.211 11.8189V12.8789Z" fill="#333333"/>
<path d="M6.22232 11.9706C6.03901 11.321 5.44527 10.8747 4.77183 10.8747C4.38131 10.8747 4.06252 10.5599 4.06252 10.1694C4.0665 9.7749 4.38131 9.4601 4.77183 9.4601C5.16234 9.4601 5.48113 9.77889 5.48113 10.1694C5.48113 10.3886 5.66045 10.5679 5.87962 10.5679C6.09879 10.5679 6.27811 10.3886 6.27811 10.1694C6.27811 9.49596 5.8318 8.90222 5.18227 8.71892V8.5396C5.18227 8.32043 5.00295 8.14111 4.78378 8.14111C4.56461 8.14111 4.38529 8.32043 4.38529 8.5396V8.71095C3.58434 8.92613 3.10615 9.751 3.32133 10.552C3.49667 11.2095 4.09041 11.6677 4.77183 11.6677C5.16234 11.6677 5.48113 11.9825 5.48113 12.373C5.48113 12.7635 5.16633 13.0823 4.77581 13.0823C4.38529 13.0823 4.0665 12.7675 4.0665 12.377C4.0665 12.1579 3.88719 11.9785 3.66802 11.9785C3.44885 11.9785 3.26953 12.1579 3.26953 12.377C3.27352 13.0584 3.72779 13.6522 4.38529 13.8315V14.1782C4.38529 14.3973 4.56461 14.5767 4.78378 14.5767C5.00295 14.5767 5.18227 14.3973 5.18227 14.1782V13.8275C5.98323 13.6004 6.44946 12.7715 6.22232 11.9706Z" fill="#333333"/>
</svg>
