<svg width="24" height="25" viewBox="0 0 24 25" fill="none" xmlns="http://www.w3.org/2000/svg">
<g clip-path="url(#clip0_1768_181994)">
<path d="M4.05667 23.3227C4.23855 24.1896 5.00073 24.8335 5.91564 24.8335H19.4948C20.5462 24.8335 21.4016 23.9781 21.4016 22.9267V4.43834C21.4016 3.55334 20.7842 2.79734 19.9503 2.59269C19.768 1.72995 19.0017 1.08008 18.0855 1.08008H4.50644C3.45498 1.08008 2.59961 1.93545 2.59961 2.98691V21.4752C2.59956 22.371 3.22267 23.1193 4.05667 23.3227ZM19.9924 21.4752V3.38652C20.3871 3.57336 20.6593 3.97822 20.6593 4.43834V22.9266C20.6593 23.5687 20.1368 24.0912 19.4947 24.0912H5.91564C5.43447 24.0912 5.02023 23.8007 4.8437 23.3821H18.0856C19.137 23.3821 19.9924 22.5267 19.9924 21.4752ZM3.34187 2.98695C3.34187 2.34486 3.86434 1.82239 4.50644 1.82239H18.0856C18.7277 1.82239 19.2501 2.34486 19.2501 2.98695V21.4752C19.2501 22.1173 18.7277 22.6398 18.0856 22.6398H4.50644C3.86434 22.6398 3.34187 22.1173 3.34187 21.4752V2.98695Z" fill="#F19CA6"/>
<path d="M6.36843 13.0381H16.6316C16.835 13.0381 17 12.8142 17 12.5381C17 12.2619 16.835 12.0381 16.6316 12.0381H6.36843C6.16495 12.0381 6 12.2619 6 12.5381C6 12.8142 6.16495 13.0381 6.36843 13.0381Z" fill="#F19CA6"/>
<path d="M12 17.6697L12 7.40651C12 7.20304 11.7761 7.03809 11.5 7.03809C11.2239 7.03809 11 7.20304 11 7.40651L11 17.6697C11 17.8731 11.2239 18.0381 11.5 18.0381C11.7761 18.0381 12 17.8731 12 17.6697Z" fill="#F19CA6"/>
</g>
<defs>
<clipPath id="clip0_1768_181994">
<rect width="24" height="24" fill="white" transform="translate(0 0.957031)"/>
</clipPath>
</defs>
</svg>
