<svg width="24" height="25" viewBox="0 0 24 25" fill="none" xmlns="http://www.w3.org/2000/svg">
<g clip-path="url(#clip0_1768_181991)">
<path d="M22.1511 16.0339C21.8209 16.0339 21.5533 16.3015 21.5533 16.6316V21.9387C21.5522 22.9287 20.7501 23.731 19.7602 23.7319H2.98862C1.99864 23.731 1.19662 22.9287 1.19545 21.9387V6.36265C1.19662 5.3729 1.99864 4.57064 2.98862 4.56947H8.29576C8.62591 4.56947 8.89348 4.3019 8.89348 3.97175C8.89348 3.64183 8.62591 3.37402 8.29576 3.37402H2.98862C1.33881 3.37589 0.00186789 4.71283 0 6.36265V21.939C0.00186789 23.5888 1.33881 24.9257 2.98862 24.9276H19.7602C21.41 24.9257 22.7469 23.5888 22.7488 21.939V16.6316C22.7488 16.3015 22.4812 16.0339 22.1511 16.0339V16.0339Z" fill="#F19CA6"/>
<path d="M22.5121 1.83569C21.4616 0.785238 19.7586 0.785238 18.7081 1.83569L8.04433 12.4995C7.97125 12.5725 7.91848 12.6631 7.89093 12.7626L6.48861 17.8253C6.43094 18.0329 6.48954 18.2551 6.64178 18.4076C6.79424 18.5598 7.01652 18.6184 7.22409 18.561L12.2868 17.1584C12.3862 17.1309 12.4768 17.0781 12.5499 17.005L23.2135 6.34104C24.2623 5.28988 24.2623 3.58824 23.2135 2.53708L22.5121 1.83569ZM9.34671 12.888L18.0742 4.16028L20.8889 6.97495L12.1612 15.7027L9.34671 12.888ZM8.78448 14.0162L11.0332 16.2651L7.92268 17.1269L8.78448 14.0162ZM22.3682 5.49582L21.7343 6.12973L18.9194 3.31483L19.5536 2.68091C20.1371 2.09743 21.0831 2.09743 21.6666 2.68091L22.3682 3.3823C22.9508 3.96649 22.9508 4.91187 22.3682 5.49582V5.49582Z" fill="#F19CA6"/>
</g>
<defs>
<clipPath id="clip0_1768_181991">
<rect width="24" height="24" fill="white" transform="translate(0 0.957031)"/>
</clipPath>
</defs>
</svg>
