<svg width="34" height="34" viewBox="0 0 34 34" fill="none" xmlns="http://www.w3.org/2000/svg">
<path d="M29.9919 1.47174C28.1774 -0.339537 25.2391 -0.339537 23.4247 1.47174L21.7807 3.12466L4.28133 20.6147L4.24414 20.6522C4.23514 20.6612 4.23514 20.6708 4.22555 20.6708C4.20695 20.6987 4.17906 20.7263 4.16076 20.7542C4.16076 20.7635 4.15117 20.7635 4.15117 20.7728C4.13257 20.8007 4.12357 20.8193 4.10468 20.8472C4.09567 20.8565 4.09567 20.8655 4.08638 20.8751C4.07708 20.903 4.06778 20.9216 4.05819 20.9495C4.05819 20.9585 4.04919 20.9585 4.04919 20.9681L0.166597 32.6434C0.0527026 32.9758 0.139286 33.3439 0.389447 33.5906C0.565229 33.7641 0.802316 33.8611 1.04899 33.8602C1.14981 33.8585 1.24976 33.8428 1.34622 33.8137L13.0126 29.9219C13.0216 29.9219 13.0216 29.9219 13.0312 29.9129C13.0605 29.9041 13.0887 29.8916 13.1146 29.8754C13.1218 29.8745 13.1282 29.8713 13.1335 29.8664C13.1611 29.8478 13.1982 29.8289 13.2261 29.8103C13.2537 29.792 13.2819 29.7641 13.3098 29.7455C13.3191 29.7359 13.3281 29.7359 13.3281 29.7269C13.3377 29.7176 13.3563 29.7086 13.3656 29.6897L32.5089 10.5464C34.3202 8.73194 34.3202 5.79363 32.5089 3.97945L29.9919 1.47174ZM12.7154 27.739L6.25067 21.2746L22.431 5.09428L28.8957 11.5587L12.7154 27.739ZM5.34009 22.9929L10.9878 28.6403L2.50725 31.4638L5.34009 22.9929ZM31.1994 9.24592L30.2148 10.2399L23.7498 3.77491L24.744 2.78123C25.8315 1.69459 27.5943 1.69459 28.6821 2.78123L31.2084 5.30754C32.2878 6.4 32.2837 8.15869 31.1994 9.24592Z" fill="color"/>
</svg>
