<svg width="20" height="20" viewBox="0 0 20 20" fill="none" xmlns="http://www.w3.org/2000/svg">
<g clip-path="url(#clip0_1_2371)">
<path d="M20 4.35077C20 3.33592 19.1743 2.51025 18.1595 2.51025H1.84051C0.825862 2.51029 0.000351564 3.33557 0 4.35108V4.35139V15.6483C0 16.6758 0.834065 17.4894 1.84114 17.4894H18.1588C19.1863 17.4894 20 16.6554 20 15.6483V4.35139C20 4.35132 20 4.35124 20 4.35116C20 4.35104 20 4.35093 20 4.35077ZM1.84051 3.68217H18.1595C18.5282 3.68217 18.8281 3.98214 18.8281 4.35175C18.8281 4.54815 18.7305 4.73046 18.5668 4.83952L10.3713 10.3035C10.1458 10.4538 9.85429 10.4538 9.62875 10.3035C9.62875 10.3035 1.43301 4.8394 1.43317 4.83952C1.43321 4.83956 1.43305 4.83944 1.43301 4.8394C1.2695 4.73046 1.17188 4.54815 1.17188 4.35077C1.17188 3.9821 1.47184 3.68217 1.84051 3.68217ZM18.1589 16.3175H1.84114C1.47633 16.3175 1.17188 16.0226 1.17188 15.6483V6.07379L8.97866 11.2785C9.2889 11.4853 9.64445 11.5887 10 11.5887C10.3556 11.5887 10.7112 11.4853 11.0214 11.2785L18.8281 6.07379V15.6483C18.8281 16.0131 18.5332 16.3175 18.1589 16.3175Z" fill="#333333"/>
</g>
<defs>
<clipPath id="clip0_1_2371">
<rect width="20" height="20" fill="white"/>
</clipPath>
</defs>
</svg>
