<svg width="20" height="19" viewBox="0 0 20 19" fill="none" xmlns="http://www.w3.org/2000/svg">
<path d="M17.7581 11.6444L17.7581 11.6444L17.7542 11.6496C16.7276 13.0416 15.4949 14.2487 14.2226 15.3125L14.2141 15.3196L14.2059 15.3271C13.6232 15.86 12.6731 16.6596 11.7836 17.3314C11.3385 17.6676 10.9166 17.9658 10.5682 18.1813C10.3937 18.2892 10.2453 18.3715 10.1269 18.4269C10.0685 18.4543 10.0256 18.471 9.99642 18.4812C9.8176 18.4252 9.59453 18.2944 9.32951 18.0987C9.18221 17.99 9.03715 17.8731 8.89098 17.7552L8.88379 17.7494C8.7454 17.6377 8.60153 17.5217 8.46783 17.4252C5.69136 15.3512 2.78764 12.8872 1.32613 10.2367C0.115979 7.70537 0.166449 4.69226 1.93221 2.86594C4.28609 0.794833 7.82203 1.21255 9.60391 3.36858L9.99944 3.84717L10.3827 3.35869C10.8596 2.75089 11.4433 2.27268 12.1386 1.9213C15.0165 0.803824 17.9513 1.95518 19.1451 4.45402C19.9775 7.01686 19.2755 9.64189 17.7581 11.6444Z" stroke="white"/>
</svg>
