<svg width="20" height="18" viewBox="0 0 20 18" fill="currentColor" xmlns="http://www.w3.org/2000/svg">
<path d="M18.5408 1.89977C17.5543 0.780469 16.1859 0.164062 14.6875 0.164062C12.5802 0.164062 11.246 1.42266 10.4979 2.47852C10.3038 2.7525 10.1386 3.02723 10 3.28574C9.86137 3.02723 9.69629 2.7525 9.50215 2.47852C8.75402 1.42266 7.41984 0.164062 5.3125 0.164062C3.81414 0.164062 2.44566 0.780508 1.45918 1.89981C0.518242 2.96754 0 4.39754 0 5.92637C0 7.59055 0.649727 9.1384 2.04473 10.7975C3.29148 12.2803 5.08512 13.8087 7.16211 15.5786C7.93605 16.2381 8.73641 16.9202 9.58848 17.6657L9.61406 17.6881C9.72453 17.7848 9.86227 17.8331 10 17.8331C10.1377 17.8331 10.2755 17.7848 10.3859 17.6881L10.4115 17.6657C11.2636 16.9202 12.0639 16.2382 12.838 15.5785C14.9149 13.8088 16.7085 12.2803 17.9553 10.7975C19.3503 9.13836 20 7.59055 20 5.92637C20 4.39754 19.4818 2.96754 18.5408 1.89977ZM12.0779 14.6866C11.4107 15.2552 10.724 15.8403 10 16.4697C9.27602 15.8404 8.58934 15.2552 7.92203 14.6866C3.85723 11.2228 1.17188 8.93445 1.17188 5.92637C1.17188 4.68301 1.58613 3.52816 2.33836 2.67461C3.09922 1.81137 4.15543 1.33594 5.3125 1.33594C6.9191 1.33594 7.95766 2.3257 8.54594 3.15602C9.07363 3.9007 9.34898 4.65141 9.44289 4.93957C9.52145 5.18078 9.74633 5.34402 10 5.34402C10.2537 5.34402 10.4786 5.18078 10.5571 4.93957C10.651 4.65141 10.9264 3.9007 11.4541 3.15598C12.0423 2.3257 13.0809 1.33594 14.6875 1.33594C15.8446 1.33594 16.9008 1.81137 17.6616 2.67461C18.4139 3.52816 18.8281 4.68301 18.8281 5.92637C18.8281 8.93445 16.1428 11.2228 12.0779 14.6866Z" fill="currentColor"/>
</svg>
