<svg width="18" height="18" viewBox="0 0 18 18" fill="none" xmlns="http://www.w3.org/2000/svg">
<g clip-path="url(#clip0_5522_25861)">
<path d="M5.3125 11.6719V14.4844C5.3125 14.7756 5.54861 15.0117 5.83984 15.0117H12.8711C13.1623 15.0117 13.3984 14.7756 13.3984 14.4844V11.6719C13.3984 11.3806 13.1623 11.1445 12.8711 11.1445H5.83984C5.54857 11.1445 5.3125 11.3806 5.3125 11.6719ZM6.36719 12.1992H12.3438V13.957H6.36719V12.1992Z" fill="black"/>
<path d="M16.7012 7.13595C16.6554 7.10177 16.6051 7.07586 16.5524 7.05832C16.5585 6.99107 16.5616 6.92339 16.5616 6.85547C16.5616 6.41313 16.432 5.98605 16.1977 5.62243C16.8461 5.2155 17.2647 4.49687 17.2647 3.69141C17.2647 2.43137 16.2396 1.40625 14.9796 1.40625C14.8626 1.40625 14.7464 1.41539 14.6314 1.43353C14.2929 0.585457 13.4691 0 12.5187 0C11.5805 0 10.7595 0.568617 10.4124 1.40625H10.4093C9.1943 1.40625 8.19808 2.35951 8.1284 3.55732C7.60918 3.64046 7.11615 3.84602 6.69072 4.15547L5.66184 2.3734C4.93491 1.11435 3.31913 0.681398 2.06001 1.40829C0.800923 2.13525 0.367974 3.751 1.09493 5.01012L2.26384 7.03477C2.17254 7.04514 2.08395 7.0792 2.0078 7.13605C1.85849 7.24753 1.77911 7.42954 1.79897 7.61477C1.97465 9.25446 2.15328 10.9395 2.32604 12.5692C2.46831 13.9113 2.61059 15.2533 2.75287 16.5861C2.83893 17.3921 3.5152 18 4.32597 18H14.3827C15.1938 18 15.8701 17.3918 15.9559 16.5853L16.9103 7.61439C16.9299 7.42915 16.8505 7.24732 16.7012 7.13595ZM10.4093 2.46094C10.4932 2.46094 10.5808 2.47138 10.6772 2.49282C10.8175 2.52404 10.9647 2.49659 11.0844 2.41678C11.2041 2.33694 11.286 2.21164 11.3111 2.06996C11.4152 1.4817 11.923 1.05469 12.5187 1.05469C13.1419 1.05469 13.6639 1.52575 13.7329 2.15044C13.7515 2.31831 13.8493 2.46716 13.9961 2.55076C14.1429 2.63436 14.3208 2.64259 14.4746 2.57291C14.6387 2.49862 14.8085 2.46094 14.9796 2.46094C15.6581 2.46094 16.2101 3.01293 16.2101 3.69141C16.2101 4.28776 15.7824 4.79566 15.1931 4.89913C14.9831 4.93601 14.816 5.09569 14.7696 5.30378C14.7232 5.51187 14.8066 5.72741 14.9811 5.85C15.3104 6.0814 15.507 6.45729 15.507 6.8555C15.507 7.03758 15.4651 7.2168 15.3857 7.38197C14.1769 7.81949 12.9334 8.1219 11.666 8.28752C11.7405 8.13132 11.8024 7.96939 11.8519 7.80342C13.2049 5.816 13.3884 3.82113 13.3956 3.73612C13.4203 3.44595 13.2051 3.19068 12.9149 3.166C12.6247 3.14181 12.3694 3.35658 12.3448 3.64679C12.3437 3.65955 12.261 4.55737 11.7873 5.70568C11.3771 4.59046 10.3879 3.75286 9.18608 3.55866C9.25256 2.94237 9.77568 2.46094 10.4093 2.46094ZM8.65149 4.57031C9.91152 4.57031 10.9366 5.59543 10.9366 6.85547C10.9366 7.44198 10.719 7.98775 10.3213 8.41124C10.0003 8.42854 9.67805 8.4375 9.35461 8.4375C9.29045 8.4375 9.22636 8.43701 9.16227 8.43634L7.22246 5.07646C7.62602 4.75165 8.13012 4.57031 8.65149 4.57031ZM1.85027 3.28229C1.95964 2.87413 2.22141 2.53297 2.58735 2.32165C3.34279 1.88554 4.31226 2.14527 4.74844 2.90074L5.20073 3.68413L3.69833 3.7743C3.40758 3.79174 3.18606 4.04156 3.2035 4.33227C3.22031 4.61225 3.45258 4.82804 3.7294 4.82804C3.74006 4.82804 3.75074 4.82773 3.7615 4.82709L5.7903 4.70535L6.25541 5.51095L4.75301 5.60113C4.46231 5.61857 4.24079 5.86842 4.25822 6.15909C4.27503 6.43908 4.50734 6.65487 4.78413 6.65487C4.79478 6.65487 4.80547 6.65455 4.81622 6.65392L6.84499 6.53214L7.91141 8.37928C6.50056 8.26534 5.116 7.98406 3.77201 7.53771L2.00833 4.48277C1.797 4.11683 1.7409 3.69049 1.85027 3.28229ZM14.9071 16.4738C14.8785 16.7426 14.6531 16.9453 14.3827 16.9453H4.32597C4.05569 16.9453 3.83027 16.7427 3.80158 16.4741C3.65934 15.1416 3.51709 13.7998 3.37485 12.458C3.23222 11.1126 3.08559 9.72932 2.9399 8.3649C4.99875 9.11331 7.15253 9.49219 9.35461 9.49219C11.557 9.49219 13.7107 9.11331 15.7698 8.36469L14.9071 16.4738Z" fill="black"/>
</g>
<defs>
<clipPath id="clip0_5522_25861">
<rect width="18" height="18" fill="white"/>
</clipPath>
</defs>
</svg>
