<svg width="20" height="18" viewBox="0 0 20 18" fill="none" xmlns="http://www.w3.org/2000/svg">
<path d="M17.7581 10.6503L17.7581 10.6503L17.7542 10.6555C16.7276 12.0474 15.4949 13.2546 14.2226 14.3184L14.2141 14.3255L14.2059 14.333C13.6232 14.8659 12.6731 15.6655 11.7836 16.3373C11.3385 16.6735 10.9166 16.9716 10.5682 17.1871C10.3937 17.2951 10.2453 17.3774 10.1269 17.4328C10.0685 17.4601 10.0256 17.4769 9.99642 17.487C9.8176 17.4311 9.59453 17.3003 9.32951 17.1046C9.18221 16.9958 9.03715 16.8789 8.89098 16.761L8.88379 16.7552C8.7454 16.6436 8.60153 16.5275 8.46783 16.431C5.69136 14.3571 2.78764 11.8931 1.32613 9.24252C0.115979 6.71123 0.166449 3.69812 1.93221 1.8718C4.28609 -0.199307 7.82203 0.218408 9.60391 2.37444L9.99944 2.85303L10.3827 2.36455C10.8596 1.75675 11.4433 1.27854 12.1386 0.927156C15.0165 -0.190316 17.9513 0.961035 19.1451 3.45988C19.9775 6.02272 19.2755 8.64775 17.7581 10.6503Z" fill="white" stroke="#C4C4C4"/>
</svg>
