<svg width="20" height="20" viewBox="0 0 20 20" fill="currentColor" xmlns="http://www.w3.org/2000/svg">
<path d="M10.6259 0.625C6.05124 0.625 2.14467 3.92688 1.38217 8.4375L1.14467 8.08438C0.951235 7.79781 0.562485 7.72219 0.275922 7.91563C-0.0106408 8.10906 -0.0862659 8.49781 0.107172 8.78438L1.35717 10.6594C1.45999 10.8156 1.62749 10.9178 1.81342 10.9375H1.87592C2.04155 10.9369 2.19999 10.8706 2.31655 10.7531L3.87905 9.19063C4.12311 8.94656 4.12311 8.55031 3.87905 8.30625C3.63499 8.06219 3.23874 8.06219 2.99468 8.30625L2.60717 8.69687C3.32686 4.2675 7.50093 1.26063 11.93 1.98031C16.3591 2.7 19.3666 6.87375 18.6469 11.3031C18.0078 15.2362 14.6106 18.1256 10.6259 18.125C8.11281 18.1706 5.73593 16.985 4.2603 14.95C4.05999 14.6687 3.66968 14.6028 3.38843 14.8031C3.10718 15.0034 3.04124 15.3938 3.24155 15.675C4.9503 18.0413 7.70781 19.4228 10.6259 19.375C15.8038 19.375 20.0009 15.1778 20.0009 10C20.0009 4.82219 15.8038 0.625 10.6259 0.625Z" fill="currentColor"/>
</svg>
