<svg width="20" height="20" viewBox="0 0 20 20" fill="none" xmlns="http://www.w3.org/2000/svg">
<path d="M16.6406 19.3743H3.35938C2.36859 19.3743 1.5625 18.5682 1.5625 17.5774V8.12353C1.5625 7.77838 1.8423 7.49854 2.1875 7.49854C2.5327 7.49854 2.8125 7.77838 2.8125 8.12353V17.5774C2.8125 17.879 3.05781 18.1243 3.35938 18.1243H16.6406C16.9422 18.1243 17.1875 17.879 17.1875 17.5774V8.12353C17.1875 7.77838 17.4673 7.49854 17.8125 7.49854C18.1577 7.49854 18.4375 7.77838 18.4375 8.12353V17.5774C18.4375 18.5682 17.6314 19.3743 16.6406 19.3743Z" fill="#333333"/>
<path d="M19.375 10.3107C19.215 10.3107 19.0551 10.2497 18.9331 10.1276L11.1601 2.35467C10.5204 1.71498 9.4796 1.71498 8.83992 2.35467L1.06694 10.1277C0.822881 10.3718 0.427139 10.3718 0.183076 10.1277C-0.0610254 9.88359 -0.0610254 9.48785 0.183076 9.24378L7.95605 1.47076C9.08308 0.34373 10.9169 0.34373 12.0439 1.47076L19.8169 9.24374C20.061 9.48785 20.061 9.88355 19.8169 10.1276C19.6949 10.2497 19.535 10.3107 19.375 10.3107Z" fill="#333333"/>
<path d="M12.5 19.374H7.5C7.1548 19.374 6.875 19.0942 6.875 18.749V13.2021C6.875 12.1252 7.75117 11.249 8.82812 11.249H11.1719C12.2488 11.249 13.125 12.1252 13.125 13.2021V18.749C13.125 19.0942 12.8452 19.374 12.5 19.374ZM8.125 18.124H11.875V13.2021C11.875 12.8145 11.5596 12.499 11.1719 12.499H8.82812C8.44043 12.499 8.125 12.8145 8.125 13.2021V18.124Z" fill="#333333"/>
</svg>
