<svg width="20" height="20" viewBox="0 0 20 20" fill="none" xmlns="http://www.w3.org/2000/svg">
<path d="M15.8539 2.62037H14.0445V1.81092C14.0445 1.54903 13.7588 1.43001 13.4969 1.43001H12.0923C11.759 0.477697 10.9257 0.00154151 9.97342 0.00154151C9.03159 -0.0338659 8.17493 0.543636 7.85453 1.43001H6.47369C6.2118 1.43001 5.94991 1.54903 5.94991 1.81092V2.62037H4.14048C3.06824 2.63181 2.19102 3.47767 2.14062 4.54878V18.1906C2.14062 19.2381 3.09293 20 4.14048 20H15.8539C16.9014 20 17.8537 19.2381 17.8537 18.1906V4.54883C17.8033 3.47767 16.9261 2.63181 15.8539 2.62037ZM6.90217 2.38232H8.21161C8.44019 2.35443 8.62379 2.18054 8.66398 1.95378C8.80497 1.33978 9.34365 0.899032 9.97342 0.882445C10.5974 0.901356 11.1279 1.34347 11.259 1.95378C11.3017 2.18837 11.4974 2.3645 11.7352 2.38232H13.0922V4.28694H6.90217V2.38232ZM16.9014 18.1906C16.9014 18.7144 16.3777 19.0477 15.8539 19.0477H4.14048C3.61671 19.0477 3.09293 18.7144 3.09293 18.1906V4.54883C3.14151 4.00363 3.5932 3.58271 4.14048 3.57273H5.94986V4.78693C5.97502 5.05369 6.20606 5.25324 6.47364 5.23929H13.4969C13.7694 5.25419 14.0077 5.05738 14.0445 4.78693V3.57268H15.8538C16.4011 3.58271 16.8528 4.00359 16.9014 4.54878V18.1906H16.9014Z" fill="#333333"/>
<path d="M8.16153 10.6436C7.98295 10.4553 7.68647 10.4447 7.4949 10.6198L5.97119 12.072L5.32839 11.4054C5.1498 11.2171 4.85333 11.2066 4.66175 11.3816C4.47733 11.5748 4.47733 11.8788 4.66175 12.072L5.63785 13.0719C5.72234 13.1665 5.84437 13.2189 5.97115 13.2148C6.09674 13.213 6.21654 13.1617 6.30444 13.0719L8.16144 11.3102C8.34554 11.1413 8.35785 10.8551 8.18892 10.6711C8.18026 10.6615 8.1711 10.6523 8.16153 10.6436Z" fill="#333333"/>
<path d="M14.9988 11.667H9.52303C9.26005 11.667 9.04688 11.8802 9.04688 12.1431C9.04688 12.4061 9.26005 12.6193 9.52303 12.6193H14.9988C15.2618 12.6193 15.4749 12.4061 15.4749 12.1431C15.4749 11.8802 15.2618 11.667 14.9988 11.667Z" fill="#333333"/>
<path d="M8.16153 6.83399C7.98295 6.64575 7.68647 6.63513 7.4949 6.81021L5.97119 8.26247L5.32839 7.59583C5.1498 7.40758 4.85333 7.39696 4.66175 7.57204C4.47733 7.76526 4.47733 8.06925 4.66175 8.26247L5.63785 9.2624C5.72234 9.35701 5.84437 9.40932 5.97115 9.40526C6.09674 9.40349 6.21654 9.35213 6.30444 9.2624L8.16144 7.50063C8.34554 7.33175 8.35785 7.04557 8.18892 6.86152C8.18026 6.8519 8.1711 6.84274 8.16153 6.83399Z" fill="#333333"/>
<path d="M14.9988 7.8584H9.52303C9.26005 7.8584 9.04688 8.07157 9.04688 8.33455C9.04688 8.59752 9.26005 8.81069 9.52303 8.81069H14.9988C15.2618 8.81069 15.4749 8.59752 15.4749 8.33455C15.4749 8.07157 15.2618 7.8584 14.9988 7.8584Z" fill="#333333"/>
<path d="M8.16153 14.4531C7.98295 14.2649 7.68647 14.2543 7.4949 14.4293L5.97119 15.8816L5.32839 15.2149C5.1498 15.0267 4.85333 15.0161 4.66175 15.1912C4.47733 15.3844 4.47733 15.6884 4.66175 15.8816L5.63785 16.8815C5.72234 16.9761 5.84437 17.0284 5.97115 17.0244C6.09674 17.0226 6.21654 16.9712 6.30444 16.8815L8.16144 15.1198C8.34554 14.9509 8.35785 14.6647 8.18892 14.4806C8.18026 14.4711 8.1711 14.4619 8.16153 14.4531Z" fill="#333333"/>
<path d="M14.9988 15.4766H9.52303C9.26005 15.4766 9.04688 15.6897 9.04688 15.9527C9.04688 16.2157 9.26005 16.4289 9.52303 16.4289H14.9988C15.2618 16.4289 15.4749 16.2157 15.4749 15.9527C15.4749 15.6897 15.2618 15.4766 14.9988 15.4766Z" fill="#333333"/>
</svg>
