<svg width="20" height="20" viewBox="0 0 20 20" fill="none" xmlns="http://www.w3.org/2000/svg">
<path d="M15.3367 5.85703C15.9995 5.85703 16.5367 5.31977 16.5367 4.65703C16.5367 3.99429 15.9995 3.45703 15.3367 3.45703C14.674 3.45703 14.1367 3.99429 14.1367 4.65703C14.1367 5.31977 14.674 5.85703 15.3367 5.85703Z" fill="#333333"/>
<path d="M9.99828 4.86328C8.98268 4.86328 7.98988 5.16444 7.14543 5.72868C6.30098 6.29293 5.64282 7.0949 5.25416 8.0332C4.86551 8.9715 4.76382 10.004 4.96195 11.0001C5.16009 11.9962 5.64915 12.9111 6.36729 13.6293C7.08543 14.3474 8.0004 14.8365 8.9965 15.0346C9.99259 15.2327 11.0251 15.1311 11.9634 14.7424C12.9017 14.3537 13.7036 13.6956 14.2679 12.8511C14.8321 12.0067 15.1333 11.0139 15.1333 9.99828C15.1333 8.63639 14.5923 7.33029 13.6293 6.36729C12.6663 5.40429 11.3602 4.86328 9.99828 4.86328ZM9.99828 13.3316C9.33901 13.3316 8.69455 13.1361 8.14638 12.7698C7.59822 12.4036 7.17098 11.883 6.91868 11.2739C6.66639 10.6648 6.60038 9.99458 6.729 9.34798C6.85762 8.70138 7.17509 8.10743 7.64126 7.64126C8.10744 7.17508 8.70138 6.85761 9.34798 6.729C9.99459 6.60038 10.6648 6.66639 11.2739 6.91868C11.883 7.17097 12.4036 7.59822 12.7698 8.14638C13.1361 8.69454 13.3316 9.33901 13.3316 9.99828C13.3316 10.8823 12.9804 11.7302 12.3553 12.3553C11.7302 12.9804 10.8823 13.3316 9.99828 13.3316Z" fill="#333333"/>
<path d="M10 1.80167C12.67 1.80167 12.9867 1.81167 14.0408 1.86C14.6749 1.86753 15.3029 1.98394 15.8975 2.20417C16.3289 2.37058 16.7207 2.62545 17.0476 2.9524C17.3745 3.27934 17.6294 3.67111 17.7958 4.1025C18.0161 4.69711 18.1325 5.32513 18.14 5.95917C18.1883 7.01333 18.1983 7.33 18.1983 10.0008C18.1983 12.6717 18.1883 12.9867 18.14 14.0408C18.1325 14.6749 18.0161 15.3029 17.7958 15.8975C17.6294 16.3289 17.3745 16.7207 17.0476 17.0476C16.7207 17.3745 16.3289 17.6294 15.8975 17.7958C15.3029 18.0161 14.6749 18.1325 14.0408 18.14C12.9867 18.1883 12.67 18.1983 10 18.1983C7.33 18.1983 7.01333 18.1883 5.95917 18.14C5.32513 18.1325 4.69711 18.0161 4.1025 17.7958C3.67111 17.6294 3.27934 17.3745 2.9524 17.0476C2.62545 16.7207 2.37058 16.3289 2.20417 15.8975C1.98394 15.3029 1.86753 14.6749 1.86 14.0408C1.81167 12.9867 1.80167 12.67 1.80167 10C1.80167 7.33 1.81167 7.01333 1.86 5.95917C1.86753 5.32513 1.98394 4.69711 2.20417 4.1025C2.37058 3.67111 2.62545 3.27934 2.9524 2.9524C3.27934 2.62545 3.67111 2.37058 4.1025 2.20417C4.69711 1.98394 5.32513 1.86753 5.95917 1.86C7.01333 1.81167 7.33 1.80167 10 1.80167ZM10 0C7.28417 0 6.94333 0.0116667 5.87667 0.06C5.04731 0.0767468 4.2268 0.233974 3.45 0.525C2.7856 0.781914 2.18222 1.17481 1.67851 1.67851C1.17481 2.18222 0.781914 2.7856 0.525 3.45C0.233882 4.22706 0.0766528 5.04786 0.06 5.8775C0.0116667 6.94417 0 7.28333 0 10C0 12.7167 0.0116667 13.0567 0.06 14.1233C0.0767468 14.9527 0.233974 15.7732 0.525 16.55C0.781914 17.2144 1.17481 17.8178 1.67851 18.3215C2.18222 18.8252 2.7856 19.2181 3.45 19.475C4.22706 19.7661 5.04786 19.9233 5.8775 19.94C6.94417 19.9883 7.28417 20 10 20C12.7158 20 13.0567 19.9883 14.1233 19.94C14.953 19.9233 15.7738 19.7661 16.5508 19.475C17.2152 19.2181 17.8186 18.8252 18.3223 18.3215C18.826 17.8178 19.2189 17.2144 19.4758 16.55C19.7667 15.7729 19.9236 14.9521 19.94 14.1225C19.9883 13.0558 20 12.7167 20 10C20 7.28333 19.9883 6.94333 19.94 5.87667C19.9233 5.04731 19.766 4.2268 19.475 3.45C19.2181 2.7856 18.8252 2.18222 18.3215 1.67851C17.8178 1.17481 17.2144 0.781914 16.55 0.525C15.7729 0.234167 14.9521 0.0772193 14.1225 0.0608333C13.0558 0.0108333 12.7167 0 10 0Z" fill="#333333"/>
</svg>
