<svg width="20" height="20" viewBox="0 0 20 20" fill="none" xmlns="http://www.w3.org/2000/svg">
<path d="M4.20455 0C1.9 0 0 1.9 0 4.20455V15.7955C0 18.1 1.9 20 4.20455 20H15.7955C18.1 20 20 18.1 20 15.7955V4.20455C20 1.9 18.1 0 15.7955 0H4.20455ZM4.20455 1.81818H15.7955C16.109 1.81758 16.4196 1.8789 16.7094 1.99861C16.9992 2.11833 17.2625 2.29408 17.4842 2.5158C17.7059 2.73751 17.8817 3.00082 18.0014 3.29062C18.1211 3.58041 18.1824 3.891 18.1818 4.20455V15.7955C18.1824 16.109 18.1211 16.4196 18.0014 16.7094C17.8817 16.9992 17.7059 17.2625 17.4842 17.4842C17.2625 17.7059 16.9992 17.8817 16.7094 18.0014C16.4196 18.1211 16.109 18.1824 15.7955 18.1818H4.20455C3.891 18.1824 3.58041 18.1211 3.29062 18.0014C3.00082 17.8817 2.73751 17.7059 2.5158 17.4842C2.29408 17.2625 2.11833 16.9992 1.99861 16.7094C1.8789 16.4196 1.81758 16.109 1.81818 15.7955V4.20455C1.81758 3.891 1.8789 3.58041 1.99861 3.29062C2.11833 3.00082 2.29408 2.73751 2.5158 2.5158C2.73751 2.29408 3.00082 2.11833 3.29062 1.99861C3.58041 1.8789 3.891 1.81758 4.20455 1.81818ZM10 3.83545C6.34909 3.83545 3.38091 6.24273 3.38091 9.20455C3.38091 11.8609 5.73909 14.07 8.92091 14.4891C9.13727 14.5345 9.41364 14.6445 9.48818 14.83C9.55636 14.9964 9.53818 15.2555 9.51727 15.4264C9.51727 15.4264 9.45 15.8945 9.43182 15.9945C9.40364 16.1609 9.29364 16.6618 10 16.3636C10.7064 16.0655 13.81 14.0982 15.1991 12.5C16.1573 11.4491 16.6191 10.3909 16.6191 9.20455C16.6191 6.24273 13.6509 3.83545 10 3.83545ZM6.10818 7.64182C6.15312 7.64121 6.19773 7.64961 6.23936 7.66652C6.281 7.68344 6.31882 7.70853 6.3506 7.74031C6.38238 7.77209 6.40747 7.80991 6.42439 7.85155C6.4413 7.89318 6.4497 7.93779 6.44909 7.98273V10.2555H7.41455C7.60636 10.2555 7.75546 10.4336 7.75546 10.6255C7.75607 10.6704 7.74767 10.715 7.73075 10.7566C7.71383 10.7983 7.68875 10.8361 7.65697 10.8679C7.62519 10.8997 7.58736 10.9247 7.54573 10.9417C7.50409 10.9586 7.45948 10.967 7.41455 10.9664H6.10909C5.91727 10.9664 5.74 10.8164 5.74 10.6255V7.98182C5.74 7.79091 5.91727 7.64091 6.10909 7.64091L6.10818 7.64182ZM8.43727 7.64182C8.48221 7.64121 8.52682 7.64961 8.56845 7.66652C8.61009 7.68344 8.64792 7.70853 8.67969 7.74031C8.71147 7.77209 8.73656 7.80991 8.75348 7.85155C8.77039 7.89318 8.77879 7.93779 8.77818 7.98273V10.6245C8.77879 10.6695 8.77039 10.7141 8.75348 10.7557C8.73656 10.7974 8.71147 10.8352 8.67969 10.867C8.64792 10.8987 8.61009 10.9238 8.56845 10.9408C8.52682 10.9577 8.48221 10.9661 8.43727 10.9655C8.24636 10.9655 8.06818 10.8164 8.06818 10.6245V7.98273C8.06818 7.79182 8.24545 7.64182 8.43727 7.64182ZM9.51727 7.64182C9.55273 7.63182 9.59546 7.64182 9.63091 7.64182C9.68188 7.64256 9.73188 7.65589 9.77645 7.68064C9.82102 7.70538 9.85878 7.74077 9.88636 7.78364L11.25 9.60182V7.98364C11.2493 7.93862 11.2576 7.89392 11.2744 7.85218C11.2913 7.81043 11.3164 7.7725 11.3482 7.74062C11.3799 7.70875 11.4178 7.68358 11.4595 7.6666C11.5012 7.64963 11.5459 7.6412 11.5909 7.64182C11.6358 7.64121 11.6805 7.64961 11.7221 7.66652C11.7637 7.68344 11.8016 7.70853 11.8333 7.74031C11.8651 7.77209 11.8902 7.80991 11.9071 7.85155C11.924 7.89318 11.9324 7.93779 11.9318 7.98273V10.6245C11.9338 10.6945 11.9126 10.7631 11.8715 10.8197C11.8304 10.8762 11.7717 10.9176 11.7045 10.9373C11.6682 10.9482 11.6264 10.9664 11.5909 10.9664C11.5357 10.966 11.4813 10.9529 11.432 10.9282C11.3827 10.9034 11.3397 10.8676 11.3064 10.8236L9.97182 8.97727V10.6255C9.97243 10.6704 9.96403 10.715 9.94711 10.7566C9.9302 10.7983 9.90511 10.8361 9.87333 10.8679C9.84155 10.8997 9.80373 10.9247 9.76209 10.9417C9.72045 10.9586 9.67585 10.967 9.63091 10.9664C9.43909 10.9664 9.26182 10.8164 9.26182 10.6255V7.98182C9.26182 7.83273 9.37455 7.68727 9.51636 7.64091L9.51727 7.64182ZM12.7555 7.64182H14.0627C14.1077 7.64121 14.1523 7.64961 14.1939 7.66652C14.2355 7.68344 14.2734 7.70853 14.3052 7.74031C14.3369 7.77209 14.362 7.80991 14.3789 7.85155C14.3958 7.89318 14.4042 7.93779 14.4036 7.98273C14.4042 8.02767 14.3958 8.07227 14.3789 8.11391C14.362 8.15555 14.3369 8.19337 14.3052 8.22515C14.2734 8.25693 14.2355 8.28202 14.1939 8.29893C14.1523 8.31585 14.1077 8.32425 14.0627 8.32364H13.0964V8.94909H14.0627C14.1077 8.94848 14.1523 8.95688 14.1939 8.9738C14.2355 8.99071 14.2734 9.0158 14.3052 9.04758C14.3369 9.07936 14.362 9.11718 14.3789 9.15882C14.3958 9.20046 14.4042 9.24506 14.4036 9.29C14.4036 9.48091 14.2545 9.65909 14.0627 9.65909H13.0964V10.2555H14.0627C14.2536 10.2555 14.4036 10.4336 14.4036 10.6255C14.4042 10.6704 14.3958 10.715 14.3789 10.7566C14.362 10.7983 14.3369 10.8361 14.3052 10.8679C14.2734 10.8997 14.2355 10.9247 14.1939 10.9417C14.1523 10.9586 14.1077 10.967 14.0627 10.9664H12.7545C12.7096 10.967 12.665 10.9586 12.6234 10.9417C12.5817 10.9247 12.5439 10.8997 12.5121 10.8679C12.4803 10.8361 12.4553 10.7983 12.4383 10.7566C12.4214 10.715 12.413 10.6704 12.4136 10.6255V7.98182C12.413 7.93688 12.4214 7.89228 12.4383 7.85064C12.4553 7.809 12.4803 7.77118 12.5121 7.7394C12.5439 7.70762 12.5817 7.68253 12.6234 7.66561C12.665 7.6487 12.7096 7.6403 12.7545 7.64091L12.7555 7.64182Z" fill="#333333"/>
</svg>
