<svg width="126" height="50" viewBox="0 0 126 50" fill="none" xmlns="http://www.w3.org/2000/svg">
<path d="M26.4356 0.414133C31.3053 0.414133 35.9755 2.27468 39.4189 5.58647C42.8623 8.89826 44.7968 13.39 44.7968 18.0736C44.7968 22.7572 42.8623 27.2489 39.4189 30.5607C35.9755 33.8725 31.3053 35.733 26.4356 35.733C24.0271 35.747 21.6396 35.3011 19.4115 34.421C17.1835 33.541 15.1592 32.2443 13.4561 30.6063C11.753 28.9682 10.4048 27.0213 9.48979 24.8784C8.57478 22.7355 8.1111 20.4393 8.12564 18.1228C8.10535 15.8001 8.56434 13.4966 9.47605 11.3457C10.3878 9.1948 11.7341 7.23923 13.437 5.59222C15.1399 3.94521 17.1657 2.63948 19.3969 1.75065C21.6282 0.861822 24.0206 0.407547 26.4356 0.414133V0.414133ZM26.4356 30.823C29.0635 30.8327 31.6351 30.0914 33.8242 28.6931C36.0133 27.2949 37.7212 25.3027 38.7312 22.9693C39.7412 20.636 40.0077 18.0667 39.497 15.5874C38.9863 13.1082 37.7213 10.8307 35.8626 9.04403C34.0039 7.25735 31.6352 6.04198 29.0572 5.55213C26.4791 5.06229 23.8079 5.32006 21.3824 6.29273C18.9569 7.2654 16.8865 8.90913 15.4339 11.0153C13.9813 13.1216 13.212 15.5953 13.2235 18.1228C13.237 21.4883 14.6335 24.7122 17.1086 27.0913C19.5836 29.4705 22.9364 30.8119 26.4356 30.823V30.823Z" fill="#F19CA6"/>
<path d="M62.6518 32.692L63.7255 30.7743C63.7881 30.6726 63.8723 30.5847 63.9726 30.5164C64.0729 30.448 64.187 30.4007 64.3076 30.3775C64.4281 30.3543 64.5524 30.3558 64.6723 30.3818C64.7922 30.4078 64.9051 30.4578 65.0036 30.5285C66.4593 31.3081 68.0859 31.7462 69.7509 31.8069C71.2773 31.8069 72.2487 31.2169 72.2487 30.1351C72.2487 28.8145 71.124 28.1753 68.3194 26.953C65.157 25.6254 62.4766 23.7639 62.4766 20.5257C62.4766 18.0742 64.5654 15.1309 69.4661 15.1309C71.5793 15.0921 73.6625 15.6173 75.4842 16.6482C75.7198 16.7932 75.8917 17.0166 75.9671 17.2757C76.0425 17.5347 76.0162 17.8115 75.8932 18.0531L74.9729 19.7179C74.8359 19.9245 74.627 20.0775 74.3835 20.1495C74.14 20.2216 73.8778 20.208 73.6437 20.1112C72.3304 19.5193 70.9134 19.1691 69.4661 19.0786C67.7278 19.0786 67.1727 19.7811 67.1727 20.5538C67.1727 21.8252 68.4436 22.3661 70.4301 23.202C74.1549 24.7684 77.2151 26.2927 77.2151 29.9736C77.2151 33.0151 74.2061 35.7125 69.6706 35.7125C67.2635 35.7936 64.8984 35.0907 62.9586 33.7176C62.7889 33.6097 62.6648 33.4472 62.6086 33.2592C62.5524 33.0712 62.5677 32.8701 62.6518 32.692Z" fill="#F19CA6"/>
<path d="M104.245 15.1312C105.489 15.104 106.726 15.3206 107.881 15.7677C109.036 16.2148 110.084 16.8832 110.962 17.7321C111.84 18.581 112.529 19.5927 112.988 20.7058C113.446 21.8188 113.665 23.01 113.63 24.2068C113.621 24.6484 113.587 25.0893 113.527 25.5274C113.51 25.7505 113.406 25.9594 113.238 26.1138C113.069 26.2681 112.847 26.357 112.615 26.3633H98.7378C98.8496 27.7834 99.5124 29.1113 100.595 30.0833C101.677 31.0554 103.1 31.6005 104.581 31.6105C106.202 31.559 107.775 31.0724 109.123 30.2056C109.73 29.8685 110.088 29.6718 110.497 30.1565L111.957 32.025C112.062 32.1017 112.146 32.2026 112.2 32.3183C112.254 32.4341 112.277 32.561 112.266 32.6875C112.256 32.814 112.213 32.936 112.141 33.0424C112.069 33.1487 111.971 33.2361 111.855 33.2964C109.715 34.942 107.042 35.8122 104.303 35.755C98.1316 35.755 94.0781 31.0907 94.0781 25.4501C94.0781 19.8095 98.1243 15.1312 104.245 15.1312ZM108.89 23.2725C108.819 22.1107 108.297 21.0169 107.427 20.2077C106.557 19.3985 105.403 18.933 104.194 18.9033C102.919 18.8858 101.683 19.3223 100.722 20.129C99.7624 20.9356 99.1465 22.0553 98.9934 23.2725H108.89Z" fill="#F19CA6"/>
<path d="M57.5239 5.35965C57.5239 2.39534 55.6688 0 53.3828 0C51.0968 0 49.2344 2.39534 49.2344 5.35965C49.2312 6.32879 49.4454 7.2872 49.8625 8.16943C50.0565 8.56958 50.3019 8.9448 50.5929 9.28632C50.9011 9.60365 51.2278 9.90385 51.5715 10.1854C51.9289 10.4764 52.184 10.8665 52.3019 11.3023C52.3421 11.7323 52.3421 12.1649 52.3019 12.5948C52.3387 12.8407 52.4664 13.0655 52.6616 13.2281C52.8567 13.3908 53.1063 13.4803 53.3646 13.4803C53.6228 13.4803 53.8724 13.3908 54.0676 13.2281C54.2627 13.0655 54.3904 12.8407 54.4272 12.5948C54.3785 12.1267 54.3932 11.6544 54.4711 11.1899C54.6975 10.3259 55.7127 9.84125 56.2604 9.14583C56.8316 8.40806 57.2144 7.55143 57.3779 6.64512C57.4672 6.22182 57.5161 5.79153 57.5239 5.35965V5.35965Z" fill="#F19CA6"/>
<path d="M54.6022 15.1719H52.2723C51.5826 15.1719 51.0234 15.7097 51.0234 16.3731V34.6577C51.0234 35.3211 51.5826 35.8589 52.2723 35.8589H54.6022C55.2919 35.8589 55.8511 35.3211 55.8511 34.6577V16.3731C55.8511 15.7097 55.2919 15.1719 54.6022 15.1719Z" fill="#F19CA6"/>
<path d="M85.562 13.6289H86.5699C86.8765 13.6289 87.125 13.3899 87.125 13.095V0.563442C87.125 0.2686 86.8765 0.0295839 86.5699 0.0295839H85.562C85.2555 0.0295839 85.007 0.2686 85.007 0.563442V13.095C85.007 13.3899 85.2555 13.6289 85.562 13.6289Z" fill="#F19CA6"/>
<path d="M87.0487 10.6014C87.982 10.6299 88.8922 10.3188 89.5976 9.73032C89.992 9.3452 90.3029 8.88857 90.5123 8.38693C90.7216 7.88529 90.8253 7.34865 90.8173 6.80815V0.949767C90.7747 0.69985 90.6412 0.472624 90.4405 0.308664C90.2398 0.144704 89.9851 0.0546875 89.7217 0.0546875C89.4584 0.0546875 89.2037 0.144704 89.003 0.308664C88.8023 0.472624 88.6688 0.69985 88.6262 0.949767V6.82923C88.6409 7.41407 88.4273 7.98299 88.0273 8.42378C87.7567 8.6421 87.4083 8.75044 87.056 8.72583C86.7812 8.7104 86.5113 8.79989 86.3048 8.97482C86.0983 9.14976 85.9719 9.39602 85.9531 9.66008C85.9719 9.92344 86.097 10.1693 86.3017 10.3452C86.5064 10.521 86.7745 10.613 87.0487 10.6014V10.6014Z" fill="#F19CA6"/>
<path d="M85.0748 10.6014C85.3515 10.6168 85.6233 10.5266 85.8312 10.3503C86.0391 10.174 86.1662 9.926 86.185 9.66008C86.1662 9.39602 86.0398 9.14977 85.8333 8.97483C85.6268 8.79989 85.3569 8.71041 85.0821 8.72583C84.9075 8.73954 84.7318 8.71991 84.5651 8.66807C84.3984 8.61623 84.244 8.53321 84.1108 8.42378C83.7147 7.9891 83.5012 7.42815 83.5119 6.8503V0.949768C83.4693 0.69985 83.3357 0.472624 83.1351 0.308664C82.9344 0.144704 82.6796 0.0546875 82.4163 0.0546875C82.153 0.0546875 81.8983 0.144704 81.6976 0.308664C81.4969 0.472624 81.3634 0.69985 81.3208 0.949768V6.82923C81.3123 7.36602 81.4151 7.89906 81.6233 8.39718C81.8315 8.89531 82.1408 9.34852 82.5332 9.73033C83.2367 10.3172 84.144 10.6281 85.0748 10.6014V10.6014Z" fill="#F19CA6"/>
<path d="M85.0015 11.5569C85.0015 11.5569 85.038 10.9739 83.5408 10.3417L83.4531 9.80078L85.6442 10.0466L85.0015 11.5569Z" fill="#F19CA6"/>
<path d="M87.1271 11.5499C87.1271 11.5499 87.1271 10.9739 88.5878 10.3417L88.6754 9.80078L86.4844 10.0466L87.1271 11.5499Z" fill="#F19CA6"/>
<path d="M87.2272 15.2266H84.8973C84.2076 15.2266 83.6484 15.7643 83.6484 16.4277V34.7124C83.6484 35.3758 84.2076 35.9136 84.8973 35.9136H87.2272C87.9169 35.9136 88.4761 35.3758 88.4761 34.7124V16.4277C88.4761 15.7643 87.9169 15.2266 87.2272 15.2266Z" fill="#F19CA6"/>
<path d="M123.744 35.1221C122.78 34.4828 121.714 34.6093 120.596 34.6093C120.151 34.6093 119.866 34.8762 120.005 35.1993V35.5014C120.005 41.1842 94.4422 45.7922 62.9274 45.7922C31.4126 45.7922 5.84284 41.149 5.84284 35.4663V35.1642C5.967 34.8411 5.69677 34.5742 5.25856 34.5742C3.95852 34.5742 2.81187 34.4688 1.75285 35.3609C1.08093 35.9299 0 37.0257 0 37.974C0 44.6121 26.0883 49.9998 62.9274 49.9998C99.7665 49.9998 125.862 44.6121 125.862 37.974C125.862 36.9414 124.606 35.7121 123.824 35.1642L123.744 35.1221Z" fill="#F19CA6"/>
</svg>
