<svg width="25" height="25" viewBox="0 0 25 25" fill="none" xmlns="http://www.w3.org/2000/svg">
<g clip-path="url(#clip0_2006_35046)">
<path d="M3.48885 11.7958L2.17491 13.6098C1.84839 14.0605 2.04536 14.6979 2.56984 14.8854L3.41927 15.1893V21.0968C3.41927 21.633 3.75843 22.1145 4.26328 22.2951L11.1982 24.7755C12.0274 25.0722 12.9493 25.0823 13.807 24.7755L20.742 22.2951C21.2468 22.1145 21.586 21.633 21.586 21.0968V19.2276C21.586 19.0253 21.4221 18.8614 21.2198 18.8614C21.0175 18.8614 20.8536 19.0253 20.8536 19.2276V21.0968C20.8536 21.3244 20.7096 21.5288 20.4953 21.6055L13.5603 24.0859C13.3356 24.1663 13.1042 24.2205 12.8688 24.2481V16.2584L13.6801 17.3783C13.8949 17.6751 14.2891 17.7993 14.6373 17.6747C15.0254 17.5358 20.6818 15.5127 20.8536 15.4512V17.5186C20.8536 17.7209 21.0175 17.8848 21.2198 17.8848C21.4221 17.8848 21.586 17.7209 21.586 17.5186V15.1893L22.4355 14.8854C22.9596 14.698 23.1571 14.0607 22.8303 13.6097L22.8303 13.6098L21.5164 11.7958C21.479 11.744 21.4133 11.6907 21.3425 11.6656L18.168 10.5369C17.9774 10.469 17.768 10.5687 17.7003 10.7593C17.6325 10.9499 17.7321 11.1593 17.9227 11.227L20.1295 12.0117L12.8688 14.6086V9.55087C13.1784 9.58071 13.4829 9.64843 13.7778 9.75332L16.3033 10.6513C16.4939 10.7192 16.7033 10.6195 16.771 10.4289C16.8388 10.2383 16.7393 10.029 16.5487 9.96118L14.0232 9.06322C13.0642 8.7222 11.9906 8.70452 10.9819 9.06322L3.66273 11.6656C3.5929 11.6904 3.52811 11.7416 3.48885 11.7958ZM2.76803 14.0395L3.92079 12.448L11.9196 15.3089C11.6482 15.6837 11.8849 15.357 10.7319 16.9487C10.7054 16.9853 10.657 17.0001 10.6146 16.9851C10.4784 16.9363 2.95891 14.2468 2.81647 14.1958C2.75216 14.1728 2.72794 14.0948 2.76803 14.0395ZM4.50987 21.6055C4.2956 21.5288 4.15165 21.3244 4.15165 21.0968V15.4512L10.368 17.6747C10.7194 17.8004 11.1108 17.672 11.3235 17.3805C11.3241 17.3797 11.3247 17.3791 11.3252 17.3784C11.3252 17.3783 11.3252 17.3783 11.3252 17.3783L12.1364 16.2584V24.248C11.901 24.2205 11.6695 24.1662 11.4448 24.0859L4.50987 21.6055ZM22.2372 14.0395C22.2772 14.0948 22.253 14.1728 22.1888 14.1958C22.1155 14.2221 14.4676 16.9575 14.3906 16.985C14.3482 17.0002 14.2998 16.9853 14.2733 16.9487L13.0855 15.3089L21.0844 12.448L22.2372 14.0395ZM11.2273 9.75332C11.5222 9.64848 11.8267 9.58076 12.1363 9.55087V14.6086C11.8223 14.4962 5.15861 12.1128 4.87569 12.0116L11.2273 9.75332Z" fill="white"/>
<path d="M12.8653 7.63061V3.05372C12.8653 2.85142 12.7013 2.6875 12.499 2.6875C12.2967 2.6875 12.1328 2.85142 12.1328 3.05372V7.63056C12.1328 7.83286 12.2967 7.99678 12.499 7.99678C12.7013 7.99678 12.8653 7.83286 12.8653 7.63061Z" fill="white"/>
<path d="M17.3514 3.75339C17.2468 3.79914 14.7853 4.90849 14.3783 7.95987C14.3491 8.17896 14.5193 8.37452 14.7418 8.37452C14.9225 8.37452 15.0797 8.24073 15.1043 8.05664C15.2511 6.9556 15.7199 6.01178 16.4975 5.25142C17.0819 4.67997 17.6333 4.42967 17.6456 4.42416C17.8304 4.34286 17.9146 4.12728 17.8337 3.94221C17.7527 3.75691 17.5369 3.67243 17.3514 3.75339Z" fill="white"/>
<path d="M16.611 8.74275C16.5105 8.91829 16.5713 9.14203 16.7469 9.24247C16.9221 9.34286 17.146 9.28226 17.2466 9.10658C18.0972 7.62061 19.3607 7.04052 20.2709 6.81562C20.4672 6.76708 20.5871 6.56854 20.5385 6.3722C20.49 6.17586 20.2914 6.05593 20.0951 6.10457C19.2364 6.31688 17.6418 6.94179 16.611 8.74275Z" fill="white"/>
<path d="M7.17138 3.94221C7.09037 4.12751 7.1749 4.34344 7.3602 4.42449C7.38203 4.43401 9.54779 5.40986 9.90078 8.05669C9.92759 8.25782 10.1125 8.39801 10.3122 8.3713C10.5127 8.34454 10.6535 8.16035 10.6268 7.95986C10.2198 4.90849 7.75821 3.79909 7.65362 3.75338C7.46831 3.67243 7.25249 3.75695 7.17138 3.94221Z" fill="white"/>
<path d="M4.47171 6.37218C4.42322 6.56852 4.54304 6.76706 4.73934 6.8156C5.64956 7.04055 6.91311 7.62064 7.76366 9.10656C7.8642 9.28224 8.08808 9.34289 8.26338 9.24245C8.43892 9.14196 8.49976 8.91822 8.39927 8.74273C7.36844 6.94177 5.77383 6.31681 4.91512 6.10455C4.71863 6.05596 4.52024 6.17594 4.47171 6.37218Z" fill="white"/>
<path d="M19.2021 3.72275C18.9999 3.72275 18.8359 3.88667 18.8359 4.08897C18.8359 4.29126 18.9999 4.45518 19.2021 4.45518H19.4572V4.71021C19.4572 4.9125 19.6211 5.07642 19.8234 5.07642C20.0257 5.07642 20.1896 4.9125 20.1896 4.71021V4.45518H20.4446C20.6469 4.45518 20.8108 4.29126 20.8108 4.08897C20.8108 3.88667 20.6469 3.72275 20.4446 3.72275H20.1896V3.46777C20.1896 3.26548 20.0257 3.10156 19.8234 3.10156C19.6211 3.10156 19.4572 3.26548 19.4572 3.46777V3.72275H19.2021Z" fill="white"/>
<path d="M4.45718 8.80093H4.20215C3.99985 8.80093 3.83594 8.96484 3.83594 9.16714C3.83594 9.36943 3.99985 9.53335 4.20215 9.53335H4.45718V9.78838C4.45718 9.99067 4.62109 10.1546 4.82339 10.1546C5.02568 10.1546 5.1896 9.99067 5.1896 9.78838V9.53335H5.44463C5.64692 9.53335 5.81084 9.36943 5.81084 9.16714C5.81084 8.96484 5.64692 8.80093 5.44463 8.80093H5.1896V8.5459C5.1896 8.3436 5.02568 8.17969 4.82339 8.17969C4.62109 8.17969 4.45718 8.3436 4.45718 8.5459V8.80093Z" fill="white"/>
<path d="M16.7792 1.12872C16.4445 0.957472 16.1664 0.678804 15.9962 0.344032C15.7627 -0.114718 15.1094 -0.114669 14.8759 0.344129C14.7058 0.678804 14.4276 0.957521 14.093 1.12867C13.6345 1.36314 13.6376 2.02175 14.0908 2.25286C14.424 2.42279 14.7017 2.6997 14.8725 3.03261C15.1049 3.48545 15.7673 3.48555 15.9998 3.03256C16.1706 2.69974 16.4482 2.42283 16.7815 2.25281C17.2345 2.02175 17.2378 1.36334 16.7792 1.12872ZM15.436 2.5411C15.2258 2.19578 14.9317 1.90168 14.5864 1.69137C14.9318 1.48112 15.2258 1.18731 15.4361 0.842235C15.6464 1.18731 15.9403 1.48112 16.2857 1.69137C15.9404 1.90168 15.6463 2.19573 15.436 2.5411Z" fill="white"/>
<path d="M9.31878 3.75924C9.52684 4.16453 10.1184 4.16516 10.3265 3.75924C10.4455 3.52721 10.639 3.33419 10.8713 3.21573C11.2741 3.01035 11.2829 2.42177 10.8699 2.21029C10.8698 2.21024 10.8698 2.21024 10.8697 2.21019C10.6365 2.0909 10.4427 1.89671 10.324 1.66331C10.1152 1.2529 9.53016 1.2528 9.32127 1.66335C9.20262 1.89666 9.00882 2.0909 8.77527 2.21034C8.36833 2.41879 8.36525 3.00733 8.774 3.21573C9.00623 3.33414 9.19974 3.52721 9.31878 3.75924ZM9.8226 2.24496C9.95151 2.42558 10.1106 2.58461 10.2914 2.71342C10.1107 2.84228 9.95151 3.00142 9.8226 3.18218C9.69374 3.00152 9.53461 2.84228 9.35389 2.71342C9.53466 2.58456 9.69379 2.42558 9.8226 2.24496Z" fill="white"/>
</g>
<defs>
<clipPath id="clip0_2006_35046">
<rect width="25" height="25" fill="white"/>
</clipPath>
</defs>
</svg>
