<svg width="20" height="20" viewBox="0 0 20 20" fill="currentColor" xmlns="http://www.w3.org/2000/svg">
<path d="M20 4.34833C20 3.33348 19.1743 2.50781 18.1595 2.50781H1.84051C0.825862 2.50785 0.000351564 3.33313 0 4.34864V4.34895V15.6458C0 16.6734 0.834065 17.487 1.84114 17.487H18.1588C19.1863 17.487 20 16.653 20 15.6458V4.34895C20 4.34888 20 4.3488 20 4.34872C20 4.3486 20 4.34848 20 4.34833ZM1.84051 3.67973H18.1595C18.5282 3.67973 18.8281 3.97969 18.8281 4.3493C18.8281 4.54571 18.7305 4.72802 18.5668 4.83708L10.3713 10.301C10.1458 10.4514 9.85429 10.4514 9.62875 10.301C9.62875 10.301 1.43301 4.83696 1.43317 4.83708C1.43321 4.83712 1.43305 4.837 1.43301 4.83696C1.2695 4.72802 1.17188 4.54571 1.17188 4.34833C1.17188 3.97966 1.47184 3.67973 1.84051 3.67973ZM18.1589 16.3151H1.84114C1.47633 16.3151 1.17188 16.0201 1.17188 15.6458V6.07134L8.97866 11.276C9.2889 11.4829 9.64445 11.5863 10 11.5863C10.3556 11.5863 10.7112 11.4829 11.0214 11.276L18.8281 6.07134V15.6459C18.8281 16.0106 18.5332 16.3151 18.1589 16.3151Z" fill="currentColor"/>
</svg>
