<svg width="15" height="15" viewBox="0 0 15 15" fill="none" xmlns="http://www.w3.org/2000/svg">
<path d="M13.4426 2.73656L8.80995 0.32164C8.39877 0.107114 7.94895 0 7.5 0C7.05076 0 6.60123 0.107382 6.19005 0.32164L1.55736 2.73656C0.60123 3.2349 0 4.2344 0 5.32541V9.67459C0 10.7656 0.60123 11.7648 1.55736 12.2634L6.19005 14.6784C6.60123 14.8926 7.05073 15 7.5 15C7.94924 15 8.39877 14.8926 8.80966 14.6784L13.4426 12.2634C14.3988 11.7648 15 10.7656 15 9.67459V5.32541C15 4.2344 14.3988 3.2349 13.4426 2.73656ZM1.95035 3.51276L6.58304 1.09779C6.87079 0.947791 7.18512 0.872793 7.5 0.872793C7.81488 0.872793 8.12921 0.947791 8.41696 1.09779L10.2176 2.03651L3.82852 5.3663L3.82937 5.36802L1.30242 4.05086C1.47592 3.83098 1.69482 3.64628 1.95035 3.51276ZM7.21339 14.1036C6.99647 14.0721 6.78316 14.0064 6.58304 13.9022L1.95035 11.4872C1.28086 11.1378 0.859863 10.4383 0.859863 9.67459V5.32541C0.859863 5.05548 0.914707 4.79495 1.01238 4.55375L7.21336 7.78582V14.1036H7.21339ZM4.2982 5.61234L10.6881 2.28172L13.0496 3.51276C13.3052 3.64628 13.5241 3.83098 13.6976 4.05086L7.5 7.28121L4.2982 5.61234ZM14.1401 9.67459C14.1401 10.4383 13.7191 11.1378 13.0496 11.4872L8.41696 13.9022C8.21684 14.0062 8.00352 14.0718 7.78661 14.1036V7.78579L13.9876 4.55372C14.0853 4.79492 14.1401 5.05545 14.1401 5.32538V9.67459Z" fill="#F19CA6"/>
<path d="M2.63764 7.43045L4.64397 8.39302C4.9012 8.51661 5.10974 8.40494 5.10974 8.14388C5.10974 7.88278 4.9012 7.5711 4.64397 7.44752L2.63764 6.48495C2.38038 6.36136 2.17188 6.47302 2.17188 6.73409C2.17188 6.99518 2.38038 7.30686 2.63764 7.43045Z" fill="#F19CA6"/>
</svg>
