<svg width="20" height="20" viewBox="0 0 20 20" fill="none" xmlns="http://www.w3.org/2000/svg">
<path d="M18.9511 6.7875C18.9511 6.775 18.9511 6.75833 18.9469 6.74583C18.9427 6.72916 18.9344 6.70833 18.9302 6.69166C18.9219 6.67083 18.9177 6.64583 18.9094 6.625V6.62083L17.2428 2.87083C17.1386 2.64583 16.9136 2.5 16.6677 2.5H3.33442C3.08859 2.5 2.86359 2.64583 2.76359 2.87083L1.09692 6.62083V6.625C1.08859 6.64583 1.08442 6.66666 1.07609 6.6875C1.07192 6.70416 1.06359 6.725 1.05942 6.74166C1.05525 6.75416 1.05525 6.76666 1.05525 6.77916C1.05109 6.80833 1.04692 6.8375 1.04692 6.8625V6.86666V16.8667C1.04275 17.2208 1.32192 17.5 1.66775 17.5H18.3344C18.6802 17.5 18.9594 17.2208 18.9594 16.875V6.875V6.87083C18.9594 6.84166 18.9552 6.8125 18.9511 6.7875ZM3.73859 3.75H16.2594L17.3719 6.25H2.63025L3.73859 3.75ZM11.4594 7.5V10.95L10.2344 10.4583C10.0844 10.4 9.91775 10.4 9.77192 10.4583L8.54692 10.95V7.5H11.4594ZM17.7094 16.25H2.29275V7.5H7.29275V11.875C7.29275 12.0833 7.39692 12.275 7.56775 12.3917C7.73858 12.5083 7.95942 12.5333 8.15108 12.4542L10.0011 11.7167L11.8511 12.4583C11.9261 12.4833 12.0052 12.5 12.0844 12.5C12.2094 12.5 12.3302 12.4625 12.4344 12.3917C12.6053 12.275 12.7094 12.0833 12.7094 11.875V7.5H17.7094V16.25Z" fill="#333333"/>
</svg>
