<svg width="36" height="36" viewBox="0 0 36 36" fill="none" xmlns="http://www.w3.org/2000/svg">
<path d="M18.2991 33.3132L30.2991 28.103C30.5731 27.984 30.7503 27.7137 30.7503 27.4149V19.7457L34.0492 18.3134C34.4291 18.1484 34.6034 17.7066 34.4384 17.3266C34.4104 17.2621 34.3734 17.2018 34.3286 17.1475H34.3286L30.9747 13.0877L34.3263 9.06581C34.5916 8.748 34.549 8.27529 34.2311 8.01C34.1761 7.96408 34.1148 7.92632 34.0491 7.89778L22.0491 2.68762C21.7437 2.55445 21.387 2.63917 21.1742 2.89546L18.0004 6.70373L14.8264 2.89511C14.6134 2.63903 14.2569 2.55437 13.9515 2.68727L1.95155 7.89778C1.57172 8.06252 1.39735 8.50394 1.56209 8.88377C1.59057 8.94951 1.6284 9.01083 1.67431 9.06581L5.0259 13.0877L1.67199 17.1475C1.40811 17.4669 1.45304 17.9397 1.77233 18.2036C1.82654 18.2483 1.88686 18.2853 1.95141 18.3134L5.25027 19.7457V27.4149C5.25027 27.7137 5.42745 27.984 5.70146 28.103L17.7015 33.3132C17.7636 33.3374 17.8631 33.3674 17.9884 33.3693C18.126 33.3712 18.2346 33.3383 18.2991 33.3132ZM21.9668 4.28695L32.5331 8.87484L29.7839 12.174L19.2176 7.58615L21.9668 4.28695ZM28.1172 13.0857L18.0004 17.4785L7.88354 13.0857L18.0004 8.6928L28.1172 13.0857ZM14.034 4.28695L16.7832 7.58615L6.21678 12.174L3.46756 8.87484L14.034 4.28695ZM6.21931 13.9984L16.7873 18.5871L14.0317 21.9231L3.46376 17.3343L6.21931 13.9984ZM6.75038 20.3969L13.9516 23.5237C14.2582 23.6566 14.6158 23.5707 14.8287 23.3131L17.2504 20.3814V31.4819L6.75038 26.9227V20.3969ZM29.2504 26.9227L18.7504 31.4819V20.3816L21.1722 23.3132C21.3851 23.5709 21.7426 23.6567 22.0493 23.5238L29.2504 20.397V26.9227ZM21.9694 21.9231L19.2138 18.5871L29.7818 13.9984L32.5374 17.3343L21.9694 21.9231Z" fill="white"/>
</svg>
