<svg width="19" height="19" viewBox="0 0 19 19" fill="none" xmlns="http://www.w3.org/2000/svg">
<path d="M16.3571 1.30485C15.3994 0.348903 13.8486 0.348903 12.891 1.30485L12.0234 2.17723L2.78759 11.4081L2.76796 11.4279C2.76321 11.4326 2.76321 11.4377 2.75815 11.4377C2.74833 11.4524 2.73361 11.467 2.72395 11.4817C2.72395 11.4866 2.71889 11.4866 2.71889 11.4915C2.70908 11.5063 2.70432 11.5161 2.69435 11.5308C2.6896 11.5357 2.6896 11.5404 2.68469 11.5455C2.67979 11.5602 2.67488 11.57 2.66982 11.5848C2.66982 11.5895 2.66507 11.5895 2.66507 11.5946L0.615921 17.7566C0.55581 17.932 0.601507 18.1263 0.733536 18.2565C0.82631 18.348 0.951439 18.3992 1.08163 18.3988C1.13484 18.3979 1.18759 18.3896 1.2385 18.3742L7.39575 16.3202C7.4005 16.3202 7.4005 16.3202 7.40556 16.3154C7.42105 16.3108 7.43592 16.3042 7.44957 16.2957C7.45341 16.2952 7.45678 16.2935 7.45954 16.2909C7.47411 16.2811 7.49374 16.2711 7.50846 16.2613C7.52302 16.2517 7.5379 16.2369 7.55262 16.2271C7.55753 16.2221 7.56228 16.2221 7.56228 16.2173C7.56734 16.2124 7.57716 16.2076 7.58206 16.1977L17.6855 6.09426C18.6414 5.13663 18.6414 3.58585 17.6855 2.62837L16.3571 1.30485ZM7.23888 15.1681L3.82696 11.7564L12.3666 3.21675L15.7785 6.62852L7.23888 15.1681ZM3.34638 12.6632L6.32709 15.6438L1.85127 17.134L3.34638 12.6632ZM16.9944 5.40789L16.4747 5.93248L13.0626 2.52042L13.5873 1.99598C14.1613 1.42247 15.0917 1.42247 15.6658 1.99598L16.9991 3.32931C17.5688 3.90588 17.5666 4.83408 16.9944 5.40789Z" fill="#F19CA6"/>
</svg>
