<svg width="16" height="16" viewBox="0 0 16 16" fill="none" xmlns="http://www.w3.org/2000/svg">
<path d="M8.63894 0.878141C9.26811 0.248963 10.3129 0.210171 10.996 0.878141L15.1208 5.00293C15.7716 5.65381 15.7716 6.70908 15.1208 7.35995C14.4916 7.98913 13.4468 8.03534 12.7637 7.35995L12.4691 7.06518L10.0095 9.52476C10.7515 11.5329 10.2548 14.0112 8.63894 15.6095C8.46451 15.7821 8.19605 15.7596 8.04968 15.6095L4.51398 12.0737L1.86249 14.7257C1.69977 14.8884 1.43595 14.8884 1.27324 14.7257C1.12303 14.5755 1.09664 14.3144 1.27324 14.1364L3.92482 11.4846L0.389352 7.94921C0.239151 7.79901 0.210246 7.53906 0.389352 7.35995C1.96588 5.78343 4.36048 5.21916 6.47371 5.98893L8.9333 3.52934L8.63894 3.23516C7.96733 2.5601 8.00976 1.50732 8.63894 0.878141ZM10.4067 1.4674C10.0813 1.14196 9.55363 1.14196 9.22819 1.4674C8.91988 1.77571 8.89061 2.29833 9.22819 2.64591L9.81745 3.23516C9.96765 3.38536 9.98884 3.65256 9.81745 3.82441L6.87239 6.76966C6.75347 6.88858 6.57473 6.92436 6.41921 6.86037C4.78015 6.18599 2.79948 6.38043 1.28538 7.66684L8.33163 14.7131C9.55634 13.2961 9.81745 11.1634 9.13865 9.57998C9.05991 9.39632 9.13865 9.21688 9.22819 9.12685L12.1745 6.18146C12.3247 6.03124 12.583 6.0061 12.7637 6.18146L13.353 6.7707C13.6784 7.09614 14.2061 7.09614 14.5315 6.7707C14.8398 6.46239 14.8728 5.94199 14.5315 5.59219L10.4067 1.4674Z" fill="#333333"/>
</svg>
