<svg width="20" height="20" viewBox="0 0 20 20" fill="none" xmlns="http://www.w3.org/2000/svg">
<path fill-rule="evenodd" clip-rule="evenodd" d="M10.0014 0C8.99356 0 8.17656 0.816999 8.17656 1.82482V8.17812L1.82482 8.17812C0.816999 8.17812 0 8.99512 0 10.0029C0 11.0108 0.816998 11.8278 1.82482 11.8278H8.17656V18.1752C8.17656 19.183 8.99356 20 10.0014 20C11.0092 20 11.8262 19.183 11.8262 18.1752V11.8278H18.1752C19.183 11.8278 20 11.0108 20 10.0029C20 8.99512 19.183 8.17813 18.1752 8.17813L11.8262 8.17812V1.82482C11.8262 0.816999 11.0092 0 10.0014 0Z" fill="white"/>
</svg>
