<svg width="20" height="20" viewBox="0 0 20 20" fill="none" xmlns="http://www.w3.org/2000/svg">
<g clip-path="url(#clip0_1_2376)">
<path d="M13.0983 4.3298C12.8125 4.3298 12.5488 4.37376 12.2851 4.46167C11.7576 3.84629 10.9884 3.45068 10.1092 3.45068C9.23012 3.45068 8.46089 3.84629 7.93342 4.46167C7.66968 4.37376 7.40595 4.3298 7.12023 4.3298C5.73562 4.3298 4.63672 5.45068 4.63672 6.81332C4.63672 7.95617 5.40595 8.9232 6.46089 9.20892V12.7034C6.46089 12.8792 6.54881 13.0331 6.70265 13.143C6.79056 13.1869 8.21913 14.0001 10.1972 14.0001C11.2301 14.0001 12.395 13.7803 13.6257 13.143C13.7796 13.0551 13.8895 12.8792 13.8895 12.7034V9.18694C14.9004 8.85727 15.6037 7.91222 15.6037 6.81332C15.5818 5.45068 14.4609 4.3298 13.0983 4.3298ZM13.8455 8.132C13.7796 7.93419 13.6037 7.78035 13.384 7.78035C13.0983 7.78035 12.8785 8.00013 12.8785 8.28584V12.4177C10.373 13.5825 8.1532 12.7694 7.42793 12.4177V9.29683C7.80155 9.25287 8.13122 9.12101 8.46089 8.9232C8.70265 8.76936 8.76858 8.46167 8.61474 8.24189C8.46089 8.00013 8.1532 7.93419 7.93342 8.08804C7.69166 8.24189 7.40595 8.3298 7.12023 8.3298C6.28507 8.3298 5.62573 7.64848 5.62573 6.83529C5.62573 6.02211 6.30705 5.34079 7.12023 5.34079C7.23012 5.34079 7.31804 5.36277 7.42793 5.38475C7.31804 5.69244 7.2521 6.00013 7.2521 6.3298C7.2521 6.59354 7.47188 6.83529 7.7576 6.83529C8.04331 6.83529 8.26309 6.61551 8.26309 6.3298C8.26309 5.29683 9.09825 4.48365 10.1092 4.48365C11.1202 4.48365 11.9554 5.31881 11.9554 6.3298C11.9554 6.87925 11.7136 7.40672 11.2741 7.75837C11.0543 7.93419 11.0323 8.24189 11.2081 8.46167C11.2961 8.57156 11.4499 8.63749 11.6037 8.63749C11.7136 8.63749 11.8235 8.59353 11.9114 8.5276C12.5708 7.97815 12.9664 7.18694 12.9664 6.3298C12.9664 6.00013 12.9004 5.67046 12.7906 5.38475C12.9004 5.36277 12.9884 5.34079 13.0983 5.34079C13.9334 5.34079 14.5928 6.02211 14.5928 6.83529C14.5928 7.38474 14.2851 7.86826 13.8455 8.132Z" fill="#333333"/>
<path d="M16.6379 0H2.19836C1.93462 0 1.71484 0.21978 1.71484 0.505494V17.8901C1.71484 19.0549 2.6599 20 3.82473 20H16.8797C17.1434 20 17.3852 19.7802 17.3852 19.4945C17.3852 19.2308 17.1654 18.989 16.8797 18.989H3.80276C3.18737 18.989 2.70385 18.4835 2.70385 17.8901C2.70385 17.2747 3.20935 16.7912 3.80276 16.7912H17.9566C18.2203 16.7912 18.4621 16.5714 18.4621 16.2857C18.4621 16.2857 18.4841 2 18.4841 1.89011C18.4841 1.14286 18.2643 0 16.6379 0V0ZM17.4731 15.8022H3.80276C3.40715 15.8022 3.01155 15.9121 2.70385 16.1099V0.989011H16.6379C16.9676 0.989011 17.2094 1.07692 17.3412 1.23077C17.4731 1.38461 17.4951 1.6044 17.4951 1.78022C17.4951 1.86813 17.4731 15.8022 17.4731 15.8022Z" fill="#333333"/>
<path d="M18.0876 17.8683C18.0876 17.6046 17.8678 17.3628 17.5821 17.3628H3.91174C3.62603 17.3628 3.40625 17.5826 3.40625 17.8683C3.40625 18.132 3.62603 18.3738 3.91174 18.3738H17.5821C17.8678 18.3738 18.0876 18.154 18.0876 17.8683Z" fill="#333333"/>
</g>
<defs>
<clipPath id="clip0_1_2376">
<rect width="20" height="20" fill="white"/>
</clipPath>
</defs>
</svg>
