<svg width="42" height="25" viewBox="0 0 42 25" fill="none" xmlns="http://www.w3.org/2000/svg">
<path d="M12.0039 21.9993C12.0039 21.9993 10.4772 16.5046 6.08594 11.0098L12.0039 21.9993Z" fill="#AA7F4D"/>
<path d="M12.0039 21.9993C12.0039 21.9993 10.4772 16.5046 6.08594 11.0098" stroke="#AA7F4D" stroke-linecap="round" stroke-linejoin="round"/>
<path d="M3.69144 7.44246C3.69144 7.68905 3.6134 7.92587 3.4734 8.12282C3.33386 8.31912 3.14052 8.46544 2.92296 8.55015C2.70566 8.63475 2.46896 8.65627 2.24104 8.61365C2.01299 8.57101 1.79756 8.46477 1.6242 8.30182C1.45034 8.13839 1.32615 7.9244 1.27529 7.68407C1.22435 7.44331 1.25098 7.19431 1.34951 6.97071C1.44775 6.74779 1.61068 6.56483 1.81031 6.43945M3.69144 7.44246L1.81031 6.43945M3.69144 7.44246C3.69144 7.11071 3.55083 6.80268 3.31726 6.58313C3.0853 6.36509 2.78005 6.25 2.47073 6.25C2.23924 6.25 2.00953 6.31433 1.81031 6.43945M3.69144 7.44246L1.81031 6.43945" fill="#AA7F4D" stroke="#AA7F4D" stroke-width="1.5" stroke-linecap="round" stroke-linejoin="round"/>
<path d="M2 16.0918C2 16.0918 5.65675 17.684 7.08439 20.7729L2 16.0918Z" fill="#AA7F4D"/>
<path d="M2 16.0918C2 16.0918 5.65675 17.684 7.08439 20.7729" stroke="#AA7F4D" stroke-linecap="round" stroke-linejoin="round"/>
<path d="M29.9961 21.9993C29.9961 21.9993 31.5228 16.5046 35.9141 11.0098L29.9961 21.9993Z" fill="#AA7F4D"/>
<path d="M29.9961 21.9993C29.9961 21.9993 31.5228 16.5046 35.9141 11.0098" stroke="#AA7F4D" stroke-linecap="round" stroke-linejoin="round"/>
<path d="M38.3086 7.44246C38.3086 7.68905 38.3866 7.92587 38.5266 8.12282C38.6661 8.31912 38.8595 8.46544 39.077 8.55015C39.2943 8.63475 39.531 8.65627 39.759 8.61365C39.987 8.57101 40.2024 8.46477 40.3758 8.30182C40.5497 8.13839 40.6738 7.9244 40.7247 7.68407C40.7757 7.44331 40.749 7.19431 40.6505 6.97071C40.5523 6.74779 40.3893 6.56483 40.1897 6.43945M38.3086 7.44246L40.1897 6.43945M38.3086 7.44246C38.3086 7.11071 38.4492 6.80268 38.6827 6.58313C38.9147 6.36509 39.2199 6.25 39.5293 6.25C39.7608 6.25 39.9905 6.31433 40.1897 6.43945M38.3086 7.44246L40.1897 6.43945" fill="#AA7F4D" stroke="#AA7F4D" stroke-width="1.5" stroke-linecap="round" stroke-linejoin="round"/>
<path d="M40 16.0918C40 16.0918 36.3433 17.684 34.9156 20.7729L40 16.0918Z" fill="#AA7F4D"/>
<path d="M40 16.0918C40 16.0918 36.3433 17.684 34.9156 20.7729" stroke="#AA7F4D" stroke-linecap="round" stroke-linejoin="round"/>
<path d="M13.441 17.752C13.873 19.144 14.185 19.768 14.785 20.44C16.153 22 18.073 22.72 20.881 22.72C23.449 22.72 25.465 22.048 26.785 20.776C27.673 19.888 28.225 18.568 28.225 17.272C28.225 15.856 27.865 14.848 27.073 13.96C26.233 13.024 25.345 12.616 23.641 12.352C24.913 12.016 25.441 11.824 25.969 11.416C27.001 10.648 27.625 9.328 27.625 7.888C27.625 4.768 25.033 2.752 21.025 2.752C19.105 2.752 17.545 3.184 16.321 4.072C15.193 4.888 14.641 5.728 14.041 7.504L17.473 8.08C17.761 7.096 18.001 6.688 18.481 6.232C19.057 5.752 19.921 5.488 21.097 5.488C23.137 5.488 24.265 6.424 24.265 8.08C24.265 9.928 22.849 11.032 20.449 11.032C19.417 11.032 18.889 11.008 18.121 10.912V13.888C18.937 13.792 19.633 13.768 20.689 13.768C21.745 13.768 22.873 14.008 23.449 14.344C24.313 14.848 24.793 15.76 24.793 16.864C24.793 18.76 23.281 19.984 20.905 19.984C19.753 19.984 18.793 19.672 18.001 19.048C17.401 18.568 17.185 18.184 16.873 17.08L13.441 17.752Z" fill="#AA7F4D"/>
</svg>
