<svg width="42" height="25" viewBox="0 0 42 25" fill="none" xmlns="http://www.w3.org/2000/svg">
<path d="M12.0039 21.9993C12.0039 21.9993 10.4772 16.5046 6.08594 11.0098Z" fill="#F8B551"/>
<path d="M12.0039 21.9993C12.0039 21.9993 10.4772 16.5046 6.08594 11.0098" stroke="#F8B551" stroke-linecap="round" stroke-linejoin="round"/>
<path d="M3.4734 8.12282C3.6134 7.92587 3.69144 7.68905 3.69144 7.44246C3.69144 7.11071 3.55083 6.80268 3.31726 6.58313C3.0853 6.36509 2.78005 6.25 2.47073 6.25C2.23924 6.25 2.00953 6.31433 1.81031 6.43945C1.61068 6.56483 1.44775 6.74779 1.34951 6.97071C1.25098 7.19431 1.22435 7.44331 1.27529 7.68407C1.32615 7.9244 1.45034 8.13839 1.6242 8.30182C1.79756 8.46477 2.01299 8.57101 2.24104 8.61365C2.46896 8.65627 2.70566 8.63475 2.92296 8.55015C3.14052 8.46544 3.33386 8.31912 3.4734 8.12282Z" fill="#F8B551" stroke="#F8B551" stroke-width="1.5" stroke-linecap="round" stroke-linejoin="round"/>
<path d="M2 16.0918C2 16.0918 5.65675 17.684 7.08439 20.7729Z" fill="#F8B551"/>
<path d="M2 16.0918C2 16.0918 5.65675 17.684 7.08439 20.7729" stroke="#F8B551" stroke-linecap="round" stroke-linejoin="round"/>
<path d="M29.9961 21.9993C29.9961 21.9993 31.5228 16.5046 35.9141 11.0098Z" fill="#F8B551"/>
<path d="M29.9961 21.9993C29.9961 21.9993 31.5228 16.5046 35.9141 11.0098" stroke="#F8B551" stroke-linecap="round" stroke-linejoin="round"/>
<path d="M38.5266 8.12282C38.3866 7.92587 38.3086 7.68905 38.3086 7.44246C38.3086 7.11071 38.4492 6.80268 38.6827 6.58313C38.9147 6.36509 39.2199 6.25 39.5293 6.25C39.7608 6.25 39.9905 6.31433 40.1897 6.43945C40.3893 6.56483 40.5523 6.74779 40.6505 6.97071C40.749 7.19431 40.7757 7.44331 40.7247 7.68407C40.6738 7.9244 40.5497 8.13839 40.3758 8.30182C40.2024 8.46477 39.987 8.57101 39.759 8.61365C39.531 8.65627 39.2943 8.63475 39.077 8.55015C38.8595 8.46544 38.6661 8.31912 38.5266 8.12282Z" fill="#F8B551" stroke="#F8B551" stroke-width="1.5" stroke-linecap="round" stroke-linejoin="round"/>
<path d="M40 16.0918C40 16.0918 36.3433 17.684 34.9156 20.7729Z" fill="#F8B551"/>
<path d="M40 16.0918C40 16.0918 36.3433 17.684 34.9156 20.7729" stroke="#F8B551" stroke-linecap="round" stroke-linejoin="round"/>
<path d="M23.209 22.288C23.065 21.304 23.017 20.44 23.017 19.168V7.024C23.017 5.584 23.065 4.48 23.209 3.064C22.345 3.16 21.985 3.184 20.761 3.184H18.553C17.425 3.184 16.897 3.16 16.153 3.04V6.088C17.041 5.992 17.737 5.944 18.625 5.944H19.777V19.168C19.777 20.416 19.729 21.352 19.585 22.288H23.209Z" fill="#F8B551"/>
</svg>
