<svg width="42" height="25" viewBox="0 0 42 25" fill="none" xmlns="http://www.w3.org/2000/svg">
<path d="M12.0039 21.9993C12.0039 21.9993 10.4772 16.5046 6.08594 11.0098L12.0039 21.9993Z" fill="#F19CA6"/>
<path d="M12.0039 21.9993C12.0039 21.9993 10.4772 16.5046 6.08594 11.0098" stroke="#F19CA6" stroke-linecap="round" stroke-linejoin="round"/>
<path d="M3.69144 7.44246C3.69144 7.68905 3.6134 7.92587 3.4734 8.12282C3.33386 8.31912 3.14052 8.46544 2.92296 8.55015C2.70566 8.63475 2.46896 8.65627 2.24104 8.61365C2.01299 8.57101 1.79756 8.46477 1.6242 8.30182C1.45034 8.13839 1.32615 7.9244 1.27529 7.68407C1.22435 7.44331 1.25098 7.19431 1.34951 6.97071C1.44775 6.74779 1.61068 6.56483 1.81031 6.43945M3.69144 7.44246L1.81031 6.43945M3.69144 7.44246C3.69144 7.11071 3.55083 6.80268 3.31726 6.58313C3.0853 6.36509 2.78005 6.25 2.47073 6.25C2.23924 6.25 2.00953 6.31433 1.81031 6.43945M3.69144 7.44246L1.81031 6.43945" fill="#F19CA6" stroke="#F19CA6" stroke-width="1.5" stroke-linecap="round" stroke-linejoin="round"/>
<path d="M2 16.0918C2 16.0918 5.65675 17.684 7.08439 20.7729L2 16.0918Z" fill="#F19CA6"/>
<path d="M2 16.0918C2 16.0918 5.65675 17.684 7.08439 20.7729" stroke="#F19CA6" stroke-linecap="round" stroke-linejoin="round"/>
<path d="M29.9961 21.9993C29.9961 21.9993 31.5228 16.5046 35.9141 11.0098L29.9961 21.9993Z" fill="#F19CA6"/>
<path d="M29.9961 21.9993C29.9961 21.9993 31.5228 16.5046 35.9141 11.0098" stroke="#F19CA6" stroke-linecap="round" stroke-linejoin="round"/>
<path d="M38.3086 7.44246C38.3086 7.68905 38.3866 7.92587 38.5266 8.12282C38.6661 8.31912 38.8595 8.46544 39.077 8.55015C39.2943 8.63475 39.531 8.65627 39.759 8.61365C39.987 8.57101 40.2024 8.46477 40.3758 8.30182C40.5497 8.13839 40.6738 7.9244 40.7247 7.68407C40.7757 7.44331 40.749 7.19431 40.6505 6.97071C40.5523 6.74779 40.3893 6.56483 40.1897 6.43945M38.3086 7.44246L40.1897 6.43945M38.3086 7.44246C38.3086 7.11071 38.4492 6.80268 38.6827 6.58313C38.9147 6.36509 39.2199 6.25 39.5293 6.25C39.7608 6.25 39.9905 6.31433 40.1897 6.43945M38.3086 7.44246L40.1897 6.43945" fill="#F19CA6" stroke="#F19CA6" stroke-width="1.5" stroke-linecap="round" stroke-linejoin="round"/>
<path d="M40 16.0918C40 16.0918 36.3433 17.684 34.9156 20.7729L40 16.0918Z" fill="#F19CA6"/>
<path d="M40 16.0918C40 16.0918 36.3433 17.684 34.9156 20.7729" stroke="#F19CA6" stroke-linecap="round" stroke-linejoin="round"/>
<path d="M24.553 22.288C26.089 22.288 27.049 22.336 28.177 22.432V19.264C27.385 19.384 26.185 19.456 24.673 19.456H17.953C18.313 18.544 18.601 18.064 19.321 17.296C19.921 16.648 21.121 15.64 22.177 14.896C25.297 12.76 25.537 12.568 26.209 11.944C27.385 10.84 27.913 9.688 27.913 8.104C27.913 4.816 25.321 2.8 21.121 2.8C18.721 2.8 16.825 3.544 15.625 4.936C14.737 5.968 14.305 6.952 13.969 8.776L17.401 9.184C17.569 8.08 17.737 7.552 18.145 6.976C18.745 6.04 19.801 5.56 21.193 5.56C23.233 5.56 24.505 6.568 24.505 8.2C24.505 9.424 23.833 10.216 21.625 11.728C19.225 13.336 18.505 13.888 17.665 14.632C16.105 16.048 15.025 17.584 14.377 19.336C14.065 20.2 13.897 21.04 13.753 22.408C14.593 22.312 14.977 22.288 16.849 22.288H24.553Z" fill="#F19CA6"/>
</svg>
