<svg width="18" height="20" viewBox="0 0 18 20" fill="currentColor" xmlns="http://www.w3.org/2000/svg">
<path d="M12.0983 4.33029C11.8125 4.33029 11.5488 4.37425 11.2851 4.46216C10.7576 3.84678 9.98836 3.45117 9.10924 3.45117C8.23012 3.45117 7.46089 3.84678 6.93342 4.46216C6.66968 4.37425 6.40595 4.33029 6.12023 4.33029C4.73562 4.33029 3.63672 5.45117 3.63672 6.8138C3.63672 7.95666 4.40595 8.92369 5.46089 9.20941V12.7039C5.46089 12.8797 5.54881 13.0336 5.70265 13.1435C5.79056 13.1874 7.21913 14.0006 9.19715 14.0006C10.2301 14.0006 11.395 13.7808 12.6257 13.1435C12.7796 13.0556 12.8895 12.8797 12.8895 12.7039V9.18743C13.9004 8.85776 14.6037 7.9127 14.6037 6.8138C14.5818 5.45117 13.4609 4.33029 12.0983 4.33029ZM12.8455 8.13248C12.7796 7.93468 12.6037 7.78084 12.384 7.78084C12.0983 7.78084 11.8785 8.00062 11.8785 8.28633V12.4182C9.37298 13.583 7.1532 12.7698 6.42793 12.4182V9.29732C6.80155 9.25336 7.13122 9.12149 7.46089 8.92369C7.70265 8.76985 7.76858 8.46215 7.61474 8.24237C7.46089 8.00062 7.1532 7.93468 6.93342 8.08853C6.69166 8.24237 6.40595 8.33029 6.12023 8.33029C5.28507 8.33029 4.62573 7.64897 4.62573 6.83578C4.62573 6.0226 5.30705 5.34128 6.12023 5.34128C6.23012 5.34128 6.31804 5.36326 6.42793 5.38524C6.31804 5.69293 6.2521 6.00062 6.2521 6.33029C6.2521 6.59402 6.47188 6.83578 6.7576 6.83578C7.04331 6.83578 7.26309 6.616 7.26309 6.33029C7.26309 5.29732 8.09825 4.48414 9.10924 4.48414C10.1202 4.48414 10.9554 5.3193 10.9554 6.33029C10.9554 6.87974 10.7136 7.40721 10.2741 7.75886C10.0543 7.93468 10.0323 8.24237 10.2081 8.46215C10.2961 8.57204 10.4499 8.63798 10.6037 8.63798C10.7136 8.63798 10.8235 8.59402 10.9114 8.52809C11.5708 7.97864 11.9664 7.18743 11.9664 6.33029C11.9664 6.00062 11.9004 5.67095 11.7906 5.38524C11.9004 5.36326 11.9884 5.34128 12.0983 5.34128C12.9334 5.34128 13.5928 6.0226 13.5928 6.83578C13.5928 7.38523 13.2851 7.86875 12.8455 8.13248Z" fill="currentColor"/>
<path d="M15.6379 0H1.19836C0.934624 0 0.714844 0.21978 0.714844 0.505494V17.8901C0.714844 19.0549 1.6599 20 2.82473 20H15.8797C16.1434 20 16.3852 19.7802 16.3852 19.4945C16.3852 19.2308 16.1654 18.989 15.8797 18.989H2.80276C2.18737 18.989 1.70385 18.4835 1.70385 17.8901C1.70385 17.2747 2.20935 16.7912 2.80276 16.7912H16.9566C17.2203 16.7912 17.4621 16.5714 17.4621 16.2857C17.4621 16.2857 17.4841 2 17.4841 1.89011C17.4841 1.14286 17.2643 0 15.6379 0V0ZM16.4731 15.8022H2.80276C2.40715 15.8022 2.01155 15.9121 1.70385 16.1099V0.989011H15.6379C15.9676 0.989011 16.2094 1.07692 16.3412 1.23077C16.4731 1.38461 16.4951 1.6044 16.4951 1.78022C16.4951 1.86813 16.4731 15.8022 16.4731 15.8022Z" fill="currentColor"/>
<path d="M17.0876 17.8688C17.0876 17.605 16.8678 17.3633 16.5821 17.3633H2.91174C2.62603 17.3633 2.40625 17.5831 2.40625 17.8688C2.40625 18.1325 2.62603 18.3743 2.91174 18.3743H16.5821C16.8678 18.3743 17.0876 18.1545 17.0876 17.8688Z" fill="currentColor"/>
</svg>
