<svg width="42" height="25" viewBox="0 0 42 25" fill="none" xmlns="http://www.w3.org/2000/svg">
<path d="M12.0039 21.9993C12.0039 21.9993 10.4772 16.5046 6.08594 11.0098L12.0039 21.9993Z" fill="#3C5A99"/>
<path d="M12.0039 21.9993C12.0039 21.9993 10.4772 16.5046 6.08594 11.0098" stroke="#3C5A99" stroke-linecap="round" stroke-linejoin="round"/>
<path d="M3.69144 7.44246C3.69144 7.68905 3.6134 7.92587 3.4734 8.12282C3.33386 8.31912 3.14052 8.46544 2.92296 8.55015C2.70566 8.63475 2.46896 8.65627 2.24104 8.61365C2.01299 8.57101 1.79756 8.46477 1.6242 8.30182C1.45034 8.13839 1.32615 7.9244 1.27529 7.68407C1.22435 7.44331 1.25098 7.19431 1.34951 6.97071C1.44775 6.74779 1.61068 6.56483 1.81031 6.43945M3.69144 7.44246L1.81031 6.43945M3.69144 7.44246C3.69144 7.11071 3.55083 6.80268 3.31726 6.58313C3.0853 6.36509 2.78005 6.25 2.47073 6.25C2.23924 6.25 2.00953 6.31433 1.81031 6.43945M3.69144 7.44246L1.81031 6.43945" fill="#3C5A99" stroke="#3C5A99" stroke-width="1.5" stroke-linecap="round" stroke-linejoin="round"/>
<path d="M2 16.0918C2 16.0918 5.65675 17.684 7.08439 20.7729L2 16.0918Z" fill="#3C5A99"/>
<path d="M2 16.0918C2 16.0918 5.65675 17.684 7.08439 20.7729" stroke="#3C5A99" stroke-linecap="round" stroke-linejoin="round"/>
<path d="M29.9961 21.9993C29.9961 21.9993 31.5228 16.5046 35.9141 11.0098L29.9961 21.9993Z" fill="#3C5A99"/>
<path d="M29.9961 21.9993C29.9961 21.9993 31.5228 16.5046 35.9141 11.0098" stroke="#3C5A99" stroke-linecap="round" stroke-linejoin="round"/>
<path d="M38.3086 7.44246C38.3086 7.68905 38.3866 7.92587 38.5266 8.12282C38.6661 8.31912 38.8595 8.46544 39.077 8.55015C39.2943 8.63475 39.531 8.65627 39.759 8.61365C39.987 8.57101 40.2024 8.46477 40.3758 8.30182C40.5497 8.13839 40.6738 7.9244 40.7247 7.68407C40.7757 7.44331 40.749 7.19431 40.6505 6.97071C40.5523 6.74779 40.3893 6.56483 40.1897 6.43945M38.3086 7.44246L40.1897 6.43945M38.3086 7.44246C38.3086 7.11071 38.4492 6.80268 38.6827 6.58313C38.9147 6.36509 39.2199 6.25 39.5293 6.25C39.7608 6.25 39.9905 6.31433 40.1897 6.43945M38.3086 7.44246L40.1897 6.43945" fill="#3C5A99" stroke="#3C5A99" stroke-width="1.5" stroke-linecap="round" stroke-linejoin="round"/>
<path d="M40 16.0918C40 16.0918 36.3433 17.684 34.9156 20.7729L40 16.0918Z" fill="#3C5A99"/>
<path d="M40 16.0918C40 16.0918 36.3433 17.684 34.9156 20.7729" stroke="#3C5A99" stroke-linecap="round" stroke-linejoin="round"/>
<path d="M28.969 14.944C28.081 15.064 27.505 15.112 26.545 15.112H25.705V7.24C25.705 5.416 25.729 4.576 25.873 3.184H22.633C22.081 4.048 21.697 4.552 20.641 5.824L14.953 12.784C14.113 13.792 13.849 14.104 13.033 14.992V17.944C13.849 17.872 14.617 17.848 16.033 17.848H22.681V19.504C22.681 20.704 22.633 21.448 22.489 22.288H25.897C25.753 21.4 25.705 20.776 25.705 19.552V17.848H26.569C27.577 17.872 28.081 17.896 28.969 18.016V14.944ZM22.705 15.136H16.585L21.193 9.424C22.057 8.368 22.345 7.984 22.825 7.288C22.729 8.272 22.705 9.04 22.705 10.168V15.136Z" fill="#3C5A99"/>
</svg>
