<svg width="15" height="15" viewBox="0 0 15 15" fill="none" xmlns="http://www.w3.org/2000/svg">
<circle cx="7.5" cy="7.5" r="7.5" fill="#CFC6B9"/>
<path d="M8.88352 7.49318L10.9592 5.41746C11.0529 5.32956 11.1276 5.22339 11.1786 5.10551C11.2296 4.98763 11.2559 4.86054 11.2559 4.73209C11.2559 4.60363 11.2296 4.47654 11.1786 4.35866C11.1276 4.24078 11.0529 4.13461 10.9592 4.04671C10.7782 3.87879 10.5404 3.78549 10.2934 3.78549C10.0465 3.78549 9.8087 3.87879 9.62765 4.04671L7.49318 6.12243L5.41746 4.04671C5.32956 3.95304 5.22339 3.87839 5.10551 3.82736C4.98763 3.77633 4.86054 3.75 4.73209 3.75C4.60363 3.75 4.47654 3.77633 4.35866 3.82736C4.24078 3.87839 4.13461 3.95304 4.04671 4.04671C3.95304 4.13461 3.87839 4.24078 3.82736 4.35866C3.77633 4.47654 3.75 4.60363 3.75 4.73209C3.75 4.86054 3.77633 4.98763 3.82736 5.10551C3.87839 5.22339 3.95304 5.32956 4.04671 5.41746L6.12243 7.49318L4.04671 9.62765C3.95494 9.71867 3.8821 9.82696 3.83239 9.94627C3.78268 10.0656 3.75709 10.1936 3.75709 10.3228C3.75709 10.4521 3.78268 10.58 3.83239 10.6994C3.8821 10.8187 3.95494 10.927 4.04671 11.018C4.13413 11.1121 4.24028 11.1868 4.35832 11.2374C4.47636 11.288 4.60367 11.3133 4.73209 11.3117C4.8605 11.3133 4.98782 11.288 5.10585 11.2374C5.22389 11.1868 5.33004 11.1121 5.41746 11.018L7.49318 8.88352L9.62765 10.9592C9.81444 11.1467 10.068 11.2523 10.3326 11.253C10.4607 11.2522 10.5873 11.2259 10.705 11.1754C10.8227 11.125 10.9291 11.0515 11.018 10.9592C11.1098 10.8682 11.1826 10.7599 11.2323 10.6406C11.282 10.5213 11.3076 10.3933 11.3076 10.2641C11.3076 10.1348 11.282 10.0068 11.2323 9.88753C11.1826 9.76821 11.1098 9.65992 11.018 9.5689L8.88352 7.49318Z" fill="white"/>
</svg>
