<svg width="20" height="21" viewBox="0 0 20 21" fill="none" xmlns="http://www.w3.org/2000/svg">
<g clip-path="url(#clip0_1768_177762)">
<path d="M12.5567 20.957C12.1697 20.9509 11.7914 20.8406 11.4617 20.6375C11.132 20.4344 10.863 20.1461 10.683 19.8029L7.42274 13.8353C7.35173 13.6987 7.24053 13.5874 7.1042 13.5163L1.14581 10.2979C0.767211 10.0919 0.457611 9.77874 0.255683 9.39755C0.0537549 9.01637 -0.0315475 8.58404 0.0104327 8.15458C0.0524128 7.72511 0.219814 7.31756 0.491723 6.98284C0.763632 6.64811 1.12799 6.40105 1.53928 6.27252L17.063 1.08369C17.455 0.944542 17.8784 0.91946 18.284 1.01134C18.6897 1.10323 19.0611 1.30832 19.3552 1.60287C19.6493 1.89742 19.854 2.26938 19.9458 2.67567C20.0375 3.08197 20.0125 3.50598 19.8735 3.89861L14.6553 19.4557C14.5241 19.8614 14.2764 20.2194 13.9431 20.4848C13.6098 20.7501 13.2058 20.9112 12.7815 20.9476L12.5567 20.957ZM17.4658 2.42547L1.94213 7.6143C1.79414 7.66196 1.66355 7.75245 1.56685 7.87435C1.47014 7.99625 1.41165 8.14411 1.39876 8.29927C1.38477 8.45257 1.41647 8.60659 1.48984 8.74186C1.5632 8.87714 1.67495 8.9876 1.81097 9.0593L7.76937 12.2777C8.14835 12.479 8.45837 12.7895 8.65938 13.1691L11.8447 19.1367C11.9163 19.2729 12.0266 19.3849 12.1616 19.4584C12.2967 19.5318 12.4505 19.5636 12.6035 19.5496C12.7585 19.5367 12.9061 19.4781 13.0278 19.3812C13.1495 19.2844 13.2399 19.1536 13.2874 19.0054L18.4964 3.4576C18.557 3.31323 18.5733 3.15404 18.5432 3.00034C18.5132 2.84664 18.438 2.7054 18.3274 2.59465C18.2169 2.4839 18.0758 2.40865 17.9224 2.37852C17.7689 2.34839 17.61 2.36473 17.4658 2.42547Z" fill="white"/>
<path d="M7.94248 13.6833C7.85477 13.6852 7.76762 13.6689 7.68659 13.6352C7.60556 13.6016 7.53245 13.5514 7.47193 13.4879C7.40911 13.4267 7.35918 13.3535 7.32509 13.2726C7.291 13.1918 7.27344 13.105 7.27344 13.0172C7.27344 12.9295 7.291 12.8426 7.32509 12.7618C7.35918 12.681 7.40911 12.6078 7.47193 12.5466L17.9127 2.06755C18.0423 1.93801 18.2179 1.86523 18.4011 1.86523C18.5842 1.86523 18.7599 1.93801 18.8894 2.06755C19.0189 2.19709 19.0916 2.37278 19.0916 2.55598C19.0916 2.73917 19.0189 2.91486 18.8894 3.0444L8.41302 13.4879C8.35155 13.5501 8.27826 13.5995 8.19745 13.6331C8.11665 13.6666 8.02996 13.6837 7.94248 13.6833Z" fill="white"/>
</g>
<defs>
<clipPath id="clip0_1768_177762">
<rect width="20" height="20" fill="white" transform="translate(0 0.957031)"/>
</clipPath>
</defs>
</svg>
