<svg width="20" height="20" viewBox="0 0 20 20" fill="none" xmlns="http://www.w3.org/2000/svg">
<path d="M12.5567 20C12.1697 19.9939 11.7914 19.8835 11.4617 19.6804C11.132 19.4774 10.863 19.1891 10.683 18.8459L7.42274 12.8782C7.35173 12.7417 7.24053 12.6303 7.1042 12.5592L1.14581 9.34083C0.767211 9.13485 0.457611 8.82171 0.255683 8.44052C0.0537549 8.05933 -0.0315475 7.62701 0.0104327 7.19754C0.0524128 6.76808 0.219814 6.36053 0.491723 6.0258C0.763632 5.69108 1.12799 5.44402 1.53928 5.31549L17.063 0.126655C17.455 -0.0124888 17.8784 -0.0375715 18.284 0.0543121C18.6897 0.146196 19.0611 0.351287 19.3552 0.645836C19.6493 0.940386 19.854 1.31234 19.9458 1.71864C20.0375 2.12494 20.0125 2.54895 19.8735 2.94158L14.6553 18.4987C14.5241 18.9044 14.2764 19.2624 13.9431 19.5277C13.6098 19.7931 13.2058 19.9541 12.7815 19.9906L12.5567 20ZM17.4658 1.46843L1.94213 6.65727C1.79414 6.70493 1.66355 6.79541 1.56685 6.91732C1.47014 7.03922 1.41165 7.18708 1.39876 7.34224C1.38477 7.49554 1.41647 7.64956 1.48984 7.78483C1.5632 7.92011 1.67495 8.03057 1.81097 8.10227L7.76937 11.3207C8.14835 11.522 8.45837 11.8325 8.65938 12.2121L11.8447 18.1797C11.9163 18.3159 12.0266 18.4278 12.1616 18.5013C12.2967 18.5748 12.4505 18.6065 12.6035 18.5925C12.7585 18.5796 12.9061 18.521 13.0278 18.4242C13.1495 18.3273 13.2399 18.1965 13.2874 18.0483L18.4964 2.50057C18.557 2.3562 18.5733 2.19701 18.5432 2.04331C18.5132 1.88961 18.438 1.74837 18.3274 1.63762C18.2169 1.52687 18.0758 1.45162 17.9224 1.42149C17.7689 1.39136 17.61 1.4077 17.4658 1.46843Z" fill="#C4C4C4"/>
<path d="M7.94248 12.7272C7.85477 12.7292 7.76762 12.7128 7.68659 12.6792C7.60556 12.6455 7.53245 12.5954 7.47193 12.5318C7.40911 12.4706 7.35918 12.3974 7.32509 12.3166C7.291 12.2357 7.27344 12.1489 7.27344 12.0612C7.27344 11.9734 7.291 11.8866 7.32509 11.8057C7.35918 11.7249 7.40911 11.6517 7.47193 11.5905L17.9127 1.11149C18.0423 0.981954 18.2179 0.90918 18.4011 0.90918C18.5842 0.90918 18.7599 0.981954 18.8894 1.11149C19.0189 1.24103 19.0916 1.41673 19.0916 1.59992C19.0916 1.78312 19.0189 1.95881 18.8894 2.08835L8.41302 12.5318C8.35155 12.5941 8.27826 12.6434 8.19745 12.677C8.11665 12.7105 8.02996 12.7276 7.94248 12.7272Z" fill="#C4C4C4"/>
</svg>
