<svg width="20" height="20" viewBox="0 0 20 20" fill="none" xmlns="http://www.w3.org/2000/svg">
<path d="M4.27391 3.48017H0.58823C0.263319 3.48017 0 3.21668 0 2.89194C0 2.56721 0.263319 2.30371 0.58823 2.30371H4.27391C4.59882 2.30371 4.86214 2.56721 4.86214 2.89194C4.86214 3.21668 4.59882 3.48017 4.27391 3.48017Z" fill="#333333"/>
<path d="M6.38189 5.58609C4.89616 5.58609 3.6875 4.37743 3.6875 2.89183C3.6875 1.40592 4.89616 0.197266 6.38189 0.197266C7.86762 0.197266 9.07628 1.40592 9.07628 2.89183C9.07628 4.37748 7.86762 5.58609 6.38189 5.58609ZM6.38189 1.37377C5.54488 1.37377 4.86396 2.05483 4.86396 2.89183C4.86396 3.72884 5.54488 4.40959 6.38189 4.40959C7.2189 4.40959 7.89982 3.72884 7.89982 2.89183C7.89982 2.05483 7.2189 1.37377 6.38189 1.37377Z" fill="#333333"/>
<path d="M19.4112 3.48017H10.6195C10.2946 3.48017 10.0312 3.21668 10.0312 2.89194C10.0312 2.56721 10.2946 2.30371 10.6195 2.30371H19.4111C19.736 2.30371 19.9994 2.56721 19.9994 2.89194C19.9994 3.21668 19.7361 3.48017 19.4112 3.48017Z" fill="#333333"/>
<path d="M14.2764 12.6942C12.7906 12.6942 11.582 11.4855 11.582 9.99992C11.582 8.51432 12.7907 7.30566 14.2764 7.30566C15.7622 7.30566 16.9708 8.51432 16.9708 9.99992C16.9708 11.4855 15.7622 12.6942 14.2764 12.6942ZM14.2764 8.48217C13.4394 8.48217 12.7585 9.16292 12.7585 9.99992C12.7585 10.8369 13.4394 11.5177 14.2764 11.5177C15.1134 11.5177 15.7944 10.8369 15.7944 9.99992C15.7944 9.16292 15.1134 8.48217 14.2764 8.48217Z" fill="#333333"/>
<path d="M10.0382 10.5886H0.58823C0.263319 10.5886 0 10.3251 0 10.0003C0 9.6756 0.263319 9.41211 0.58823 9.41211H10.0382C10.3631 9.41211 10.6264 9.6756 10.6264 10.0003C10.6264 10.3251 10.3631 10.5886 10.0382 10.5886Z" fill="#333333"/>
<path d="M19.4127 10.5886H16.3851C16.0602 10.5886 15.7969 10.3251 15.7969 10.0003C15.7969 9.6756 16.0602 9.41211 16.3851 9.41211H19.4127C19.7376 9.41211 20.0009 9.6756 20.0009 10.0003C20.0009 10.3251 19.7376 10.5886 19.4127 10.5886Z" fill="#333333"/>
<path d="M5.72173 19.8029C4.236 19.8029 3.02734 18.5942 3.02734 17.1083C3.02734 15.6227 4.236 14.4141 5.72173 14.4141C7.20746 14.4141 8.41612 15.6227 8.41612 17.1083C8.41612 18.5942 7.20746 19.8029 5.72173 19.8029ZM5.72173 15.5906C4.88473 15.5906 4.2038 16.2713 4.2038 17.1083C4.2038 17.9453 4.88473 18.6264 5.72173 18.6264C6.55874 18.6264 7.23966 17.9453 7.23966 17.1083C7.23966 16.2713 6.55874 15.5906 5.72173 15.5906Z" fill="#333333"/>
<path d="M19.4132 17.696H9.96323C9.63832 17.696 9.375 17.4325 9.375 17.1078C9.375 16.783 9.63832 16.5195 9.96323 16.5195H19.4132C19.7381 16.5195 20.0014 16.783 20.0014 17.1078C20.0014 17.4325 19.7381 17.696 19.4132 17.696Z" fill="#333333"/>
<path d="M3.61581 17.696H0.58823C0.263319 17.696 0 17.4325 0 17.1078C0 16.783 0.263319 16.5195 0.58823 16.5195H3.61581C3.94072 16.5195 4.20404 16.783 4.20404 17.1078C4.20404 17.4325 3.94072 17.696 3.61581 17.696Z" fill="#333333"/>
</svg>
