<svg width="18" height="18" viewBox="0 0 18 18" fill="none" xmlns="http://www.w3.org/2000/svg">
<path d="M4.1881 18H13.8119C15.5009 18 16.875 16.5988 16.875 14.8763V5.53846C16.875 5.23385 16.6306 4.98462 16.3319 4.98462H13.0733V4.15385C13.0733 1.86369 11.2457 0 9 0C6.75427 0 4.92672 1.86369 4.92672 4.15385V4.98462H1.6681C1.3694 4.98462 1.125 5.23385 1.125 5.53846V14.8763C1.125 16.5988 2.49905 18 4.1881 18ZM6.01293 4.15385C6.01293 2.47292 7.35168 1.10769 9 1.10769C10.6483 1.10769 11.9871 2.47292 11.9871 4.15385V4.98462H6.01293V4.15385ZM2.21121 6.09231H4.92672V7.47692C4.92672 7.78154 5.17112 8.03077 5.46983 8.03077C5.76853 8.03077 6.01293 7.78154 6.01293 7.47692V6.09231H11.9871V7.47692C11.9871 7.78154 12.2315 8.03077 12.5302 8.03077C12.8289 8.03077 13.0733 7.78154 13.0733 7.47692V6.09231H15.7888V14.8763C15.7888 15.9868 14.9008 16.8923 13.8119 16.8923H4.1881C3.09918 16.8923 2.21121 15.9868 2.21121 14.8763V6.09231Z" fill="white"/>
</svg>
