<svg width="20" height="20" viewBox="0 0 20 20" fill="none" xmlns="http://www.w3.org/2000/svg">
<rect x="1" y="1" width="18" height="18" rx="3" stroke="#333333" stroke-width="2"/>
<path d="M15.2554 7.00781C14.5706 7.00781 13.9387 6.78093 13.4313 6.3982C12.8493 5.95945 12.4312 5.31586 12.2835 4.57406C12.247 4.39078 12.2273 4.20164 12.2254 4.00781H10.2691V9.35343L10.2667 12.2815C10.2667 13.0643 9.75697 13.728 9.05033 13.9615C8.84525 14.0292 8.62377 14.0613 8.39314 14.0487C8.09877 14.0325 7.82291 13.9437 7.58314 13.8002C7.07291 13.4951 6.72697 12.9415 6.71759 12.3082C6.70283 11.3184 7.50298 10.5115 8.49205 10.5115C8.68728 10.5115 8.87478 10.5434 9.05033 10.6012V9.14015V8.61492C8.86517 8.5875 8.67674 8.5732 8.48619 8.5732C7.40361 8.5732 6.39111 9.0232 5.66736 9.8339C5.12033 10.4466 4.7922 11.2282 4.74158 12.0478C4.67525 13.1245 5.06923 14.148 5.8333 14.9032C5.94556 15.0141 6.06345 15.1169 6.18673 15.2119C6.84181 15.716 7.64267 15.9893 8.48619 15.9893C8.67674 15.9893 8.86517 15.9752 9.05033 15.9478C9.8383 15.8311 10.5653 15.4704 11.1391 14.9032C11.8441 14.2064 12.2336 13.2813 12.2378 12.2967L12.2278 7.92422C12.5641 8.18367 12.9318 8.39836 13.3265 8.565C13.9403 8.82398 14.5912 8.95523 15.261 8.955V7.53445V7.00734C15.2615 7.00781 15.2559 7.00781 15.2554 7.00781Z" fill="#333333"/>
</svg>
