<svg width="17" height="17" viewBox="0 0 17 17" fill="none" xmlns="http://www.w3.org/2000/svg">
<path d="M8.14224 0.673828C5.66904 0.673828 3.64599 2.69834 3.64599 5.17153C3.64599 6.68378 4.40461 8.02294 5.55793 8.83768C2.87323 9.91395 0.968984 12.5397 0.968984 15.6028C0.94755 16.5685 2.40708 16.5685 2.38565 15.6028C2.38565 12.3515 5.00716 9.7314 8.25845 9.7314C9.39338 9.7314 10.4469 10.0549 11.3436 10.6098C12.1497 11.1042 12.8912 9.89512 12.0851 9.40076C11.6814 9.15098 11.2439 8.95618 10.793 8.78784C11.9063 7.96892 12.6343 6.65371 12.6343 5.17153C12.6343 2.69834 10.6154 0.673828 8.14224 0.673828ZM8.14224 2.09191C9.84982 2.09191 11.2177 3.46395 11.2177 5.17153C11.2177 6.8791 9.84982 8.24551 8.14224 8.24551C6.43467 8.24551 5.06265 6.8791 5.06265 5.17153C5.06265 3.46395 6.43467 2.09191 8.14224 2.09191ZM12.4877 14.1446V15.5613C12.5082 16.485 13.8839 16.485 13.9044 15.5613V14.1446H15.3224C16.2678 14.1446 16.2678 12.7266 15.3224 12.7266H13.9044V11.3099C13.909 10.9128 13.5863 10.5894 13.1891 10.5933C12.7974 10.5959 12.4831 10.9182 12.4877 11.3099V12.7266H11.0371C10.0579 12.7719 10.1257 14.1898 11.071 14.1446H12.4877Z" fill="#333333"/>
</svg>
