<svg width="130" height="130" viewBox="0 0 130 130" fill="none" xmlns="http://www.w3.org/2000/svg">
<circle cx="65" cy="65" r="65" fill="#FAF9F8"/>
<path d="M65 30C54.8228 30 46.543 38.2798 46.543 48.457C46.543 58.6342 54.8228 66.9141 65 66.9141C75.1772 66.9141 83.457 58.6342 83.457 48.457C83.457 38.2798 75.1772 30 65 30ZM65 62.8125C57.0844 62.8125 50.6445 56.3726 50.6445 48.457C50.6445 40.5414 57.0844 34.1016 65 34.1016C72.9156 34.1016 79.3555 40.5414 79.3555 48.457C79.3555 56.3726 72.9156 62.8125 65 62.8125Z" fill="#DFD6CC"/>
<path d="M87.9641 78.972C82.911 73.8412 76.2122 71.0156 69.1016 71.0156H60.8984C53.788 71.0156 47.089 73.8412 42.0359 78.972C37.0075 84.0776 34.2383 90.817 34.2383 97.9492C34.2383 99.0818 35.1565 100 36.2891 100H93.7109C94.8435 100 95.7617 99.0818 95.7617 97.9492C95.7617 90.817 92.9925 84.0776 87.9641 78.972ZM38.4301 95.8984C39.4575 84.2656 49.1421 75.1172 60.8984 75.1172H69.1016C80.8579 75.1172 90.5425 84.2656 91.5699 95.8984H38.4301Z" fill="#DFD6CC"/>
</svg>
