<svg width="17" height="17" viewBox="0 0 17 17" fill="none" xmlns="http://www.w3.org/2000/svg">
<path d="M8.1342 0.689453C5.661 0.689453 3.64347 2.71388 3.64347 5.18707C3.64347 6.69892 4.39998 8.03843 5.55127 8.85322C2.86593 9.9292 0.960938 12.5548 0.960938 15.6184C0.965046 15.8035 1.04148 15.9796 1.17387 16.1091C1.30626 16.2386 1.48409 16.3112 1.66927 16.3112C1.85446 16.3112 2.03228 16.2386 2.16467 16.1091C2.29706 15.9796 2.3735 15.8035 2.3776 15.6184C2.3776 12.3671 4.99911 9.74694 8.25041 9.74694C9.38534 9.74694 10.4388 10.0705 11.3355 10.6255C11.4149 10.6748 11.5033 10.7079 11.5955 10.723C11.6877 10.7381 11.782 10.7349 11.873 10.7135C11.964 10.6922 12.0499 10.653 12.1257 10.5984C12.2016 10.5438 12.2659 10.4748 12.315 10.3953C12.3642 10.3158 12.3971 10.2274 12.412 10.1351C12.4269 10.0428 12.4235 9.9485 12.4019 9.85757C12.3803 9.76663 12.341 9.68083 12.2862 9.60511C12.2314 9.52939 12.1622 9.46524 12.0826 9.4163C11.6785 9.16625 11.2399 8.9705 10.7877 8.80208C11.9018 7.98311 12.6318 6.66875 12.6318 5.18707C12.6318 2.71388 10.6074 0.689453 8.1342 0.689453ZM8.1342 2.10745C9.84177 2.10745 11.2152 3.47949 11.2152 5.18707C11.2152 6.89465 9.84177 8.26114 8.1342 8.26114C6.42662 8.26114 5.06014 6.89465 5.06014 5.18707C5.06014 3.47949 6.42662 2.10745 8.1342 2.10745ZM15.3033 10.6089C15.1882 10.6122 15.0756 10.6435 14.9753 10.7001C14.875 10.7568 14.7901 10.8371 14.7278 10.934L12.286 14.5933L10.7545 13.5681C10.6768 13.5159 10.5896 13.4795 10.4979 13.4611C10.4061 13.4426 10.3116 13.4424 10.2198 13.4606C10.128 13.4787 10.0407 13.5148 9.96288 13.5668C9.88504 13.6187 9.81822 13.6855 9.76625 13.7633C9.71428 13.8412 9.67817 13.9284 9.66001 14.0202C9.64185 14.112 9.64198 14.2066 9.6604 14.2983C9.67881 14.3901 9.71516 14.4773 9.76735 14.5549C9.81953 14.6326 9.88654 14.6992 9.96452 14.7509L12.0937 16.1676C12.1712 16.2191 12.2582 16.2548 12.3495 16.2726C12.4409 16.2905 12.5349 16.2901 12.6261 16.2716C12.7173 16.2531 12.804 16.2168 12.8812 16.1648C12.9584 16.1128 13.0245 16.046 13.0759 15.9684L15.9106 11.7171C15.9846 11.6091 16.0271 11.4827 16.0336 11.352C16.0401 11.2212 16.0102 11.0912 15.9473 10.9765C15.8844 10.8617 15.7909 10.7666 15.6772 10.7017C15.5636 10.6368 15.4341 10.6047 15.3033 10.6089Z" fill="white"/>
</svg>
