<svg width="18" height="20" viewBox="0 0 18 20" fill="none" xmlns="http://www.w3.org/2000/svg">
<path fill-rule="evenodd" clip-rule="evenodd" d="M10.7456 9.33869C10.2026 11.7877 8.99317 12.1909 8.99317 12.1909C8.99317 12.1909 5.4092 13.1803 4.37005 14.2194C3.33089 15.2586 2.74633 16.6675 2.7446 18.1371C2.7446 18.2707 2.79769 18.3989 2.89219 18.4934C2.9867 18.5879 3.11487 18.641 3.24852 18.641H8.28768C8.42133 18.641 8.5495 18.6941 8.64401 18.7886C8.73851 18.8831 8.7916 19.0113 8.7916 19.1449C8.7916 19.2786 8.73851 19.4067 8.64401 19.5012C8.5495 19.5957 8.42133 19.6488 8.28768 19.6488H3.24852C2.84757 19.6488 2.46306 19.4896 2.17955 19.206C1.89604 18.9225 1.73677 18.538 1.73677 18.1371C1.73913 16.7798 2.16265 15.4566 2.94889 14.3502C3.68884 13.3706 4.20308 12.8426 5.7681 12.1909C4.8335 11.6069 4.0889 10.4672 4.04547 9.33866L4.03602 9.09319C0.36775 8.03891 -0.159784 5.69584 1.58643 4.20499C2.48333 3.43923 3.82522 2.99298 4.97915 2.77098L5.07663 1.77698C5.14932 1.04864 5.75559 0.5 6.48692 0.5H8.30413C9.03543 0.5 9.6417 1.04863 9.71433 1.77619L9.81171 2.76915C15.2005 3.79663 15.6717 7.68009 10.7551 9.09322L10.7456 9.33869ZM6.48692 1.44484C6.24316 1.44484 6.04109 1.62763 6.01687 1.87001L5.94276 2.62588C6.90001 2.51886 7.88327 2.51804 8.8482 2.62481L8.77409 1.86919C8.74997 1.62763 8.5479 1.44484 8.30413 1.44484H6.48692ZM5.14651 3.70079C3.88484 3.94412 2.83837 4.37836 2.19988 4.92353C0.697152 6.20646 2.1048 7.47444 3.99766 8.0934C3.9379 6.53089 3.91481 5.90981 3.90715 5.69398C3.90609 5.67078 3.90462 5.638 3.90267 5.59323C3.8753 5.35841 4.02764 5.13518 4.26322 5.07937C6.31452 4.56755 8.48251 4.56806 10.5336 5.08082C10.7505 5.13505 10.8997 5.33388 10.8911 5.55727L10.7936 8.09337C13.0223 7.36449 14.1805 5.93404 12.2176 4.65089C11.5021 4.18316 10.4669 3.82365 9.30238 3.63853C7.94644 3.42332 6.47048 3.4454 5.14651 3.70079ZM4.86036 5.91042C4.90215 7.02318 4.94665 8.18599 4.98958 9.30238C5.02529 10.2319 5.5773 11.017 6.36469 11.3881C6.38233 11.3943 6.39949 11.4014 6.42702 11.4159C7.96424 12.0875 9.7353 11.0223 9.80144 9.30238L9.93193 5.9107C8.26526 5.55062 6.52702 5.55056 4.86036 5.91042Z" fill="#333333"/>
<path d="M13.3481 19.6713C10.9506 19.6713 9 17.7263 9 15.3356C9 12.945 10.9506 11 13.3481 11C15.7456 11 17.6962 12.945 17.6962 15.3356C17.6962 17.7263 15.7456 19.6713 13.3481 19.6713ZM13.3481 12.1962C11.6108 12.1962 10.1974 13.6046 10.1974 15.3356C10.1974 17.0667 11.6108 18.475 13.3481 18.475C15.0854 18.475 16.4988 17.0667 16.4988 15.3356C16.4988 13.6046 15.0854 12.1962 13.3481 12.1962V12.1962Z" fill="#333333"/>
<path d="M12.282 16.8583L11.3204 15.7171C11.1075 15.4644 11.1399 15.0871 11.3928 14.8743C11.6457 14.6616 12.0233 14.6939 12.2363 14.9467L12.7647 15.5737L14.4085 13.8271C14.635 13.5864 15.0139 13.5748 15.2547 13.801C15.4957 14.0273 15.5073 14.4059 15.2808 14.6465L13.1761 16.8828C12.9881 17.0807 12.5071 17.1199 12.282 16.8583V16.8583Z" fill="#333333"/>
</svg>
