<svg width="20" height="20" viewBox="0 0 20 20" fill="none" xmlns="http://www.w3.org/2000/svg">
<path d="M14.375 18.125C14.03 18.125 13.75 17.845 13.75 17.5C13.75 17.155 14.03 16.875 14.375 16.875H14.3756C14.3756 16.53 14.655 16.25 15.0003 16.25C15.3456 16.25 15.625 16.53 15.625 16.875C15.625 17.5644 15.0644 18.125 14.375 18.125Z" fill="#333333"/>
<path d="M15 17.4998C14.655 17.4998 14.375 17.2198 14.375 16.8748V10.7451C14.375 10.4001 14.655 10.1201 15 10.1201C15.345 10.1201 15.625 10.4001 15.625 10.7451V16.8748C15.625 17.2198 15.345 17.4998 15 17.4998Z" fill="#333333"/>
<path d="M14.375 18.125H3.125C2.78 18.125 2.5 17.845 2.5 17.5C2.5 17.155 2.78 16.875 3.125 16.875H14.375C14.72 16.875 15 17.155 15 17.5C15 17.845 14.72 18.125 14.375 18.125Z" fill="#333333"/>
<path d="M3.125 18.125C2.43562 18.125 1.875 17.5644 1.875 16.875C1.875 16.53 2.155 16.25 2.5 16.25C2.845 16.25 3.125 16.53 3.125 16.875V16.8759C3.47 16.8759 3.75 17.1553 3.75 17.5003C3.75 17.8453 3.47 18.125 3.125 18.125Z" fill="#333333"/>
<path d="M2.5 17.5C2.155 17.5 1.875 17.22 1.875 16.875V5.625C1.875 5.28 2.155 5 2.5 5C2.845 5 3.125 5.28 3.125 5.625V16.875C3.125 17.22 2.845 17.5 2.5 17.5Z" fill="#333333"/>
<path d="M2.49969 6.25C2.15438 6.25 1.875 5.97 1.875 5.625C1.875 4.93562 2.43562 4.375 3.125 4.375C3.47 4.375 3.75 4.655 3.75 5C3.75 5.345 3.47 5.625 3.125 5.625H3.12438C3.12438 5.97 2.845 6.25 2.49969 6.25Z" fill="#333333"/>
<path d="M9.25469 5.625H3.125C2.78 5.625 2.5 5.345 2.5 5C2.5 4.655 2.78 4.375 3.125 4.375H9.25469C9.59969 4.375 9.87969 4.655 9.87969 5C9.87969 5.345 9.6 5.625 9.25469 5.625Z" fill="#333333"/>
<path d="M8.72649 9.68699C8.56649 9.68699 8.40648 9.62605 8.28461 9.50386C8.04055 9.2598 8.04055 8.86418 8.28461 8.62011L14.3887 2.51605C14.6324 2.27199 15.0287 2.27199 15.2724 2.51605C15.5165 2.76012 15.5165 3.15574 15.2724 3.3998L9.16836 9.50386C9.04649 9.62605 8.88617 9.68699 8.72649 9.68699Z" fill="#333333"/>
<path d="M8.12562 12.5C8.08219 12.5 8.03812 12.4957 7.99406 12.486C7.65656 12.4138 7.44156 12.0813 7.51406 11.7441L8.1175 8.93097C8.18968 8.59316 8.52281 8.37722 8.85968 8.45097C9.19718 8.52316 9.41218 8.85566 9.33968 9.19285L8.73624 12.006C8.67312 12.2994 8.41406 12.5 8.12562 12.5Z" fill="#333333"/>
<path d="M10.9374 11.8965C10.7774 11.8965 10.6174 11.8355 10.4955 11.7133C10.2515 11.4693 10.2515 11.0737 10.4955 10.8296L16.5996 4.72553C16.8433 4.48146 17.2396 4.48146 17.4833 4.72553C17.7274 4.96959 17.7274 5.36522 17.4833 5.60928L11.3793 11.7133C11.2574 11.8355 11.0974 11.8965 10.9374 11.8965Z" fill="#333333"/>
<path d="M8.1246 12.5C7.83616 12.5 7.57709 12.2994 7.51397 12.0062C7.44178 11.6687 7.65647 11.3362 7.99397 11.264L10.8071 10.6603C11.1437 10.5887 11.4768 10.8025 11.5493 11.14C11.6215 11.4775 11.4068 11.81 11.0693 11.8822L8.25616 12.4859C8.2121 12.4953 8.16803 12.5 8.1246 12.5Z" fill="#333333"/>
<path d="M15.9362 6.89711C15.7762 6.89711 15.6162 6.83617 15.4943 6.71398L13.2846 4.5043C13.0405 4.26023 13.0405 3.86461 13.2846 3.62055C13.5284 3.37648 13.9246 3.37648 14.1684 3.62055L16.378 5.83023C16.6221 6.0743 16.6221 6.46992 16.378 6.71398C16.2562 6.83617 16.0962 6.89711 15.9362 6.89711Z" fill="#333333"/>
<path d="M17.0423 5.79211C16.8823 5.79211 16.7223 5.73117 16.6001 5.60898C16.356 5.36492 16.356 4.96898 16.6001 4.72492C16.7732 4.55211 16.8685 4.31648 16.8685 4.06242C16.8685 3.80836 16.7732 3.57273 16.6001 3.39992C16.2532 3.05273 15.6204 3.05305 15.2741 3.39961C15.0301 3.64367 14.6345 3.64367 14.3901 3.39992C14.146 3.15586 14.146 2.75992 14.3901 2.51586C14.7995 2.10617 15.3488 1.88086 15.937 1.88086C16.5251 1.88086 17.0748 2.10648 17.4838 2.51586C17.8929 2.92492 18.1182 3.47398 18.1182 4.06242C18.1182 4.65086 17.8929 5.20023 17.4835 5.6093C17.3623 5.73117 17.2023 5.79211 17.0423 5.79211Z" fill="#333333"/>
</svg>
